<svg width="1921" height="620" viewBox="0 0 1921 620" fill="none" xmlns="http://www.w3.org/2000/svg">
<path opacity="0.3" fill-rule="evenodd" clip-rule="evenodd" d="M71.6053 560.096C146.479 598.071 340.885 656.83 519.672 588.023C547.647 577.257 567.06 564.035 580.197 549.088C593.339 534.135 600.167 517.495 603.03 499.952C607.949 469.799 601.147 436.92 594.614 405.349C593.561 400.258 592.515 395.201 591.526 390.195C587.958 372.133 585.129 354.726 585.342 338.685C585.555 322.655 588.805 308.039 597.352 295.529C614.445 270.511 652.959 253.592 731.969 251.131C850.841 247.429 932.292 279.778 1001.32 307.195C1024 316.2 1045.33 324.673 1066.21 331.162C1108.43 344.283 1148.77 349.258 1194.43 333.935C1240.05 318.622 1290.9 283.069 1354.22 215.34C1417.43 147.742 1470.16 127.688 1517.18 133.823C1564.28 139.968 1605.89 172.402 1646.81 210.386C1656.69 219.556 1666.53 229.051 1676.39 238.569C1707.32 268.409 1738.49 298.482 1771.89 319.534C1816.01 347.344 1864.14 359.497 1920.95 334.758L1920.35 333.382C1864.12 357.871 1816.51 345.889 1772.69 318.265C1739.43 297.304 1708.42 267.386 1677.52 237.572L1677.52 237.572L1677.52 237.571C1667.64 228.033 1657.76 218.506 1647.83 209.287C1606.92 171.309 1565 138.549 1517.38 132.336C1469.68 126.113 1416.51 146.535 1353.13 214.315C1289.87 281.965 1239.23 317.314 1193.95 332.513C1148.7 347.701 1108.7 342.796 1066.66 329.73C1045.92 323.285 1024.67 314.846 1002.06 305.863C932.985 278.429 851.137 245.919 731.922 249.632C652.85 252.094 613.647 269.02 596.114 294.683C587.348 307.513 584.057 322.448 583.842 338.665C583.627 354.874 586.484 372.413 590.054 390.486C591.049 395.52 592.098 400.595 593.153 405.695C599.686 437.29 606.42 469.856 601.549 499.711C598.726 517.013 592.003 533.383 579.07 548.098C566.132 562.818 546.944 575.92 519.133 586.623C340.896 655.218 146.956 596.631 72.2838 558.758L71.6053 560.096ZM496.123 544.265C317.336 613.071 122.93 554.313 48.0564 516.337L48.7349 515C123.407 552.873 317.347 611.46 495.584 542.865C523.395 532.162 542.583 519.06 555.521 504.339C568.454 489.625 575.177 473.254 578 455.952C582.871 426.098 576.137 393.532 569.604 361.936C568.549 356.836 567.5 351.762 566.505 346.728C562.935 328.655 560.078 311.115 560.293 294.907C560.508 278.689 563.799 263.755 572.565 250.924C590.098 225.261 629.301 208.336 708.373 205.873C827.588 202.161 909.436 234.67 978.507 262.105C1001.12 271.088 1022.37 279.526 1043.11 285.971C1085.15 299.038 1125.15 303.942 1170.4 288.754C1215.68 273.556 1266.33 238.206 1329.58 170.557C1392.96 102.777 1446.13 82.3541 1493.83 88.5771C1541.45 94.7904 1583.37 127.55 1624.28 165.528C1634.22 174.748 1644.09 184.276 1653.98 193.813L1653.98 193.814L1653.98 193.814C1684.88 223.628 1715.88 253.546 1749.14 274.507C1792.96 302.131 1840.57 314.113 1896.81 289.624L1897.4 290.999C1840.6 315.739 1792.46 303.585 1748.34 275.776C1714.94 254.724 1683.77 224.651 1652.85 194.81C1642.98 185.292 1633.14 175.798 1623.26 166.628C1582.34 128.643 1540.73 96.2097 1493.63 90.0646C1446.61 83.9292 1393.88 103.983 1330.68 171.581C1267.35 239.311 1216.5 274.864 1170.88 290.176C1125.22 305.5 1084.89 300.525 1042.66 287.404C1021.78 280.915 1000.45 272.442 977.775 263.437C908.743 236.02 827.292 203.671 708.42 207.373C629.41 209.833 590.896 226.752 573.803 251.771C565.256 264.281 562.006 278.896 561.793 294.927C561.58 310.967 564.409 328.375 567.977 346.437C568.966 351.443 570.012 356.5 571.065 361.59C577.598 393.162 584.4 426.041 579.481 456.194C576.618 473.736 569.791 490.377 556.648 505.33C543.511 520.277 524.098 533.498 496.123 544.265ZM24.5076 472.578C99.3809 510.553 293.787 569.312 472.574 500.505C500.549 489.739 519.962 476.517 533.099 461.57C546.242 446.617 553.07 429.977 555.932 412.434C560.852 382.281 554.049 349.402 547.517 317.831C546.463 312.74 545.417 307.683 544.428 302.677C540.86 284.615 538.031 267.208 538.244 251.167C538.457 235.137 541.707 220.521 550.254 208.011C567.347 182.993 605.861 166.074 684.871 163.613C803.743 159.911 885.194 192.26 954.227 219.677C976.901 228.682 998.235 237.156 1019.12 243.644C1061.34 256.765 1101.67 261.74 1147.33 246.417C1192.95 231.104 1243.8 195.551 1307.13 127.822C1370.33 60.2237 1423.06 40.1697 1470.08 46.3051C1517.18 52.4502 1558.79 84.8837 1599.71 122.868C1609.59 132.038 1619.43 141.533 1629.3 151.051C1660.22 180.891 1691.39 210.965 1724.79 232.016C1768.91 259.826 1817.05 271.979 1873.86 247.24L1873.26 245.864C1817.02 270.353 1769.41 258.371 1725.59 230.747C1692.33 209.786 1661.33 179.868 1630.43 150.054L1630.43 150.054C1620.54 140.516 1610.67 130.989 1600.73 121.769C1559.82 83.7909 1517.9 51.0309 1470.28 44.8176C1422.58 38.5946 1369.41 59.0173 1306.03 126.797C1242.78 194.447 1192.14 229.796 1146.85 244.995C1101.6 260.183 1061.61 255.278 1019.56 242.212C998.821 235.767 977.575 227.328 954.959 218.345C885.887 190.911 804.039 158.401 684.824 162.114C605.752 164.576 566.55 181.502 549.016 207.165C540.25 219.995 536.959 234.93 536.744 251.148C536.529 267.356 539.386 284.895 542.957 302.968C543.951 308.002 545 313.077 546.055 318.177C552.588 349.772 559.323 382.338 554.451 412.193C551.628 429.495 544.906 445.865 531.972 460.58C519.034 475.301 499.846 488.402 472.036 499.105C293.798 567.7 99.8579 509.113 25.186 471.24L24.5076 472.578ZM0.95459 428.819C75.8279 466.795 270.234 525.553 449.021 456.747C476.996 445.98 496.409 432.758 509.546 417.812C522.689 402.859 529.517 386.218 532.379 368.676C537.299 338.522 530.496 305.644 523.964 274.072C522.91 268.982 521.864 263.925 520.875 258.919C517.307 240.857 514.478 223.449 514.691 207.409C514.904 191.378 518.154 176.763 526.701 164.253C543.794 139.234 582.308 122.315 661.318 119.855C780.19 116.153 861.641 148.502 930.674 175.919C953.347 184.924 974.682 193.397 995.562 199.886C1037.78 213.007 1078.12 217.982 1123.78 202.658C1169.4 187.346 1220.24 151.793 1283.57 84.0634C1346.78 16.4651 1399.51 -3.58887 1446.53 2.54651C1493.63 8.69165 1535.24 41.1252 1576.16 79.1096C1586.04 88.2799 1595.88 97.7742 1605.74 107.292L1605.74 107.293L1605.74 107.293L1605.75 107.294C1636.67 137.134 1667.84 167.206 1701.24 188.258C1745.36 216.067 1793.49 228.221 1850.3 203.481L1849.7 202.106C1793.47 226.595 1745.86 214.613 1702.04 186.989C1668.78 166.028 1637.77 136.111 1606.88 106.297L1606.87 106.297L1606.87 106.296L1606.87 106.295C1596.99 96.7576 1587.11 87.2303 1577.18 78.0102C1536.27 40.0323 1494.34 7.27234 1446.73 1.05908C1399.03 -5.16394 1345.86 15.2588 1282.48 83.0389C1219.22 150.688 1168.58 186.038 1123.3 201.236C1078.04 216.424 1038.05 211.519 996.007 198.453C975.268 192.008 954.021 183.57 931.406 174.587C862.334 147.152 780.486 114.643 661.271 118.355C582.199 120.818 542.997 137.743 525.463 163.406C516.697 176.237 513.406 191.171 513.191 207.389C512.976 223.597 515.833 241.137 519.404 259.21C520.398 264.244 521.447 269.318 522.502 274.418C529.035 306.013 535.77 338.579 530.898 368.434C528.075 385.736 521.353 402.107 508.419 416.821C495.481 431.542 476.293 444.644 448.483 455.347C270.245 523.942 76.3049 465.355 1.63306 427.482L0.95459 428.819Z" fill="#D2D2D2"/>
</svg>
