<svg width="123" height="320" viewBox="0 0 123 320" fill="none" xmlns="http://www.w3.org/2000/svg">
<path d="M11.0306 17.7005C19.8873 6.9536 42.2821 -9.56976 61.0077 10.312C79.7333 30.1938 54.4706 67.4049 39.4986 83.5253C32.118 88.0032 16.7242 95.6156 14.1937 90.2421C11.0306 83.5253 9.13273 69.42 35.0702 57.3297C51.7292 50.1651 87.7043 42.5527 98.3324 69.42C103.182 81.0625 104.026 108.109 68.5992 123.155L24.3156 142.633M24.3156 142.633C7.44574 143.31 -16.8048 135.257 21.1525 97.6306C33.1724 91.8094 62.273 80.0326 82.5169 79.4952C94.115 81.958 116.425 94.1379 112.883 123.155C113.304 128.976 105.418 143.439 70.4971 154.724C62.4839 156.515 44.5596 160.231 36.9681 160.769L9.76543 164.799L24.3156 142.633ZM24.3156 142.633C35.3852 139.499 61.5107 134.17 77.4559 137.931C97.3875 142.633 105.291 138.603 121.107 164.799C123.848 178.232 121.866 205.771 92.0062 208.458C62.1465 211.145 42.8726 205.995 36.9681 203.085V178.232M36.9681 178.232C58.6881 180.247 105.291 178.77 117.944 156.739C124.059 141.066 124.523 109.049 77.4559 106.362C66.0687 106.81 41.7761 108.243 35.7029 110.393L36.9681 158.082C59.1099 160.097 105.671 169.635 114.781 191.666C119.631 204.428 121.233 231.295 88.8431 236.669C76.8233 237.116 49.6206 235.46 36.9681 225.25M36.9681 178.232V225.25M36.9681 178.232C50.6749 181.591 80.8721 190.86 92.0062 201.07C105.502 212.264 125.282 240.027 96.4346 261.521C87.3669 264.879 63.2851 267.566 39.4986 251.446M36.9681 225.25L39.4986 251.446M36.9681 225.25C52.1511 235.997 83.1495 262.058 85.68 280.328C86.7344 291.523 83.9087 314.852 64.1709 318.614C59.1099 319.509 46.584 319.42 36.9681 311.897L39.4986 251.446" stroke="#D2D2D2"/>
</svg>
