<svg width="306" height="30" viewBox="0 0 306 30" fill="none" xmlns="http://www.w3.org/2000/svg">
<g clip-path="url(#clip0_101_201)">
<path d="M4.91382 26.788V29.5455H0V2.66675H4.94434V11.0001C6.43986 9.12129 8.97307 7.87887 11.8725 7.87887C17.2442 7.87887 22.4327 11.9092 22.4327 18.9698C22.4327 25.9395 17.0916 30.0304 11.9641 30.0304C9.00359 30.0001 6.47038 28.8486 4.91382 26.788ZM17.5494 18.8789C17.5494 15.2122 14.7415 12.3334 11.1095 12.3334C7.44704 12.3334 4.7307 15.2425 4.7307 18.8789C4.7307 22.5455 7.44704 25.4849 11.1095 25.4849C14.711 25.4849 17.5494 22.5758 17.5494 18.8789Z" fill="#0E479C"/>
<path d="M24.1418 18.9393C24.1418 11.8787 29.3304 7.84839 34.763 7.84839C37.5709 7.84839 40.0736 8.9696 41.6607 10.8181V8.27263H46.605V29.5454H41.6607V26.7878C40.0736 28.7878 37.5099 29.9999 34.6715 29.9999C29.5135 29.9999 24.1418 25.9393 24.1418 18.9393ZM41.9049 18.8787C41.9049 15.2423 39.1885 12.3332 35.4955 12.3332C31.833 12.3332 29.0251 15.212 29.0251 18.8787C29.0251 22.5757 31.833 25.4848 35.4955 25.4848C39.1885 25.4848 41.9049 22.5454 41.9049 18.8787Z" fill="#0E479C"/>
<path d="M49.7793 8.30293H54.6931V10.909C56.1276 9.06051 58.3251 7.84839 61.1025 7.84839C66.4741 7.84839 69.5872 11.1514 69.5872 16.9393V29.5454H64.5818V17.4241C64.5818 14.1211 62.9642 12.0908 59.7595 12.0908C56.9516 12.0908 54.7542 14.1211 54.7542 17.8787V29.5454H49.8098V8.30293H49.7793Z" fill="#0E479C"/>
<path d="M71.9373 18.9393C71.9373 11.8787 77.1258 7.84839 82.5584 7.84839C85.3663 7.84839 87.869 8.9696 89.4561 10.8181V8.27263H94.4005V29.5454H89.4256V26.7878C87.869 28.7878 85.3053 29.9999 82.4669 29.9999C77.3089 29.9999 71.9373 25.9393 71.9373 18.9393ZM89.7003 18.8787C89.7003 15.2423 86.9839 12.3332 83.2909 12.3332C79.6285 12.3332 76.8206 15.212 76.8206 18.8787C76.8206 22.5757 79.6285 25.4848 83.2909 25.4848C86.9839 25.4848 89.7003 22.5454 89.7003 18.8787Z" fill="#0E479C"/>
<path d="M102.305 26.788V29.5455H97.3914V2.66675H102.336V11.0001C103.831 9.12129 106.364 7.87887 109.264 7.87887C114.636 7.87887 119.824 11.9092 119.824 18.9698C119.824 25.9395 114.483 30.0304 109.355 30.0304C106.395 30.0001 103.862 28.8486 102.305 26.788ZM114.941 18.8789C114.941 15.2122 112.133 12.3334 108.501 12.3334C104.838 12.3334 102.122 15.2425 102.122 18.8789C102.122 22.5455 104.838 25.4849 108.501 25.4849C112.102 25.4849 114.941 22.5758 114.941 18.8789Z" fill="#0E479C"/>
<path d="M124.524 0C126.478 0 127.637 1.24242 127.637 3.09091C127.637 4.93939 126.478 6.15151 124.524 6.15151C122.51 6.15151 121.411 4.93939 121.411 3.09091C121.411 1.24242 122.632 0 124.524 0ZM122.022 8.30303H126.996V29.5758H122.022V8.30303Z" fill="#0E479C"/>
<path d="M134.962 26.788V29.5455H130.048V2.66675H134.993V11.0001C136.488 9.12129 139.022 7.87887 141.921 7.87887C147.293 7.87887 152.481 11.9092 152.481 18.9698C152.481 25.9395 147.14 30.0304 142.013 30.0304C139.052 30.0001 136.549 28.8486 134.962 26.788ZM147.598 18.8789C147.598 15.2122 144.79 12.3334 141.158 12.3334C137.495 12.3334 134.779 15.2425 134.779 18.8789C134.779 22.5455 137.495 25.4849 141.158 25.4849C144.759 25.4849 147.598 22.5758 147.598 18.8789Z" fill="#0E479C"/>
<path d="M157.181 0C159.135 0 160.294 1.24242 160.294 3.09091C160.294 4.93939 159.135 6.15151 157.181 6.15151C155.167 6.15151 154.068 4.93939 154.068 3.09091C154.068 1.24242 155.289 0 157.181 0ZM154.709 8.30303H159.684V29.5758H154.709V8.30303Z" fill="#0E479C"/>
<path d="M162.706 2.66675H167.68V29.5758H162.706V2.66675Z" fill="#0E479C"/>
<path d="M170.031 18.9696C170.031 12.7575 174.914 7.84839 181.171 7.84839C187.549 7.84839 192.189 12.5151 192.189 18.7878V20.6363H174.761C175.463 23.6666 177.844 25.6666 181.354 25.6666C184.131 25.6666 186.268 24.212 187.275 21.909L191.364 24.2423C189.503 27.6969 186.206 29.9999 181.354 29.9999C174.609 29.9999 170.031 25.1211 170.031 18.9696ZM175.036 16.5454H187.183C186.451 13.6666 184.253 12.1817 181.171 12.1817C178.21 12.1817 175.89 13.9393 175.036 16.5454Z" fill="#0E479C"/>
<path d="M192.891 8.30311H196.553V5.06069L201.528 1.66675V8.27281H205.892V12.6667H201.528V20.6364C201.528 24.3334 202.077 24.9395 205.892 24.9395V29.5455H205.19C198.567 29.5455 196.553 27.4243 196.553 20.6667V12.6971H192.891V8.30311Z" fill="#0E479C"/>
<path d="M210.562 26.394C211.691 26.394 212.363 27.1213 212.363 28.1516C212.363 29.1819 211.691 29.9395 210.562 29.9395C209.433 29.9395 208.761 29.1819 208.761 28.1516C208.761 27.1213 209.524 26.394 210.562 26.394Z" fill="#0E479C"/>
<path d="M216.361 18.9393C216.361 12.6969 221.305 7.84839 227.531 7.84839C232.171 7.84839 236.108 10.5151 237.664 14.3938L235.711 15.1817C234.276 11.8484 231.316 9.75748 227.501 9.75748C222.373 9.75748 218.467 13.8181 218.467 18.909C218.467 23.9999 222.434 28.0302 227.592 28.0302C231.56 28.0302 234.429 25.7272 235.802 22.4241L237.786 23.2726C236.108 27.212 232.476 29.9696 227.562 29.9696C221.244 29.9999 216.361 25.0605 216.361 18.9393Z" fill="#0E479C"/>
<path d="M242.09 18.9393C242.09 12.7272 247.065 7.84839 253.23 7.84839C259.395 7.84839 264.37 12.7272 264.37 18.9393C264.37 25.1514 259.365 29.9999 253.23 29.9999C247.095 29.9999 242.09 25.1514 242.09 18.9393ZM262.203 18.9393C262.203 13.8484 258.235 9.78778 253.23 9.78778C248.133 9.78778 244.226 13.8484 244.226 18.9393C244.226 24.0302 248.133 28.0605 253.23 28.0605C258.235 28.0605 262.203 24.0302 262.203 18.9393Z" fill="#0E479C"/>
<path d="M269.802 8.30293H271.817V12.3635C273.16 9.63627 275.968 7.84839 279.63 7.84839C283.995 7.84839 286.772 9.9696 287.901 13.1514C289.183 10.0605 292.296 7.84839 296.447 7.84839C302.429 7.84839 306 11.6666 306 17.2726V29.5757H303.925V17.1514C303.925 12.8484 300.995 9.75748 296.416 9.75748C292.174 9.75748 288.847 12.606 288.847 17.1514V29.5757H286.772V16.7272C286.772 12.5454 283.995 9.75748 279.508 9.75748C275.113 9.75748 271.939 12.8787 271.939 17.5454V29.5757H269.802V8.30293Z" fill="#0E479C"/>
</g>
<defs>
<clipPath id="clip0_101_201">
<rect width="306" height="30" fill="white"/>
</clipPath>
</defs>
</svg>
