<svg width="48" height="31" viewBox="0 0 48 31" fill="none" xmlns="http://www.w3.org/2000/svg">
<path d="M27.7766 15.1631C27.7766 21.4779 22.6328 26.5965 16.288 26.5965C9.94328 26.5965 4.80005 21.4779 4.80005 15.1631C4.80005 8.84891 9.94322 3.72974 16.288 3.72974C22.6328 3.72974 27.7766 8.84891 27.7766 15.1631Z" fill="white"/>
<path d="M31.7115 3.72974C28.7433 3.72974 26.0384 4.8505 23.9995 6.68942C23.5843 7.06413 23.1966 7.46891 22.8395 7.89935H25.1606C25.4779 8.28337 25.7702 8.68731 26.0364 9.11031H21.9638C21.7198 9.4991 21.4983 9.90305 21.3019 10.321H26.6979C26.8823 10.7133 27.0449 11.1169 27.1844 11.5315H20.8156C20.6828 11.9258 20.571 12.3295 20.4817 12.7422H27.5179C27.6867 13.5224 27.7766 14.3324 27.7766 15.163C27.7766 16.4327 27.5683 17.6543 27.1843 18.795H20.8155C20.9547 19.2097 21.1174 19.6137 21.3017 20.0057H26.6979C26.5011 20.4237 26.2801 20.8276 26.0357 21.2166H21.9637C22.2296 21.6389 22.5224 22.0434 22.8395 22.4265H25.1601C24.8035 22.8578 24.4155 23.2631 23.9998 23.6376C26.0387 25.4762 28.7433 26.5964 31.7115 26.5964C38.0563 26.5965 43.2001 21.4779 43.2001 15.1631C43.2001 8.84916 38.0563 3.72974 31.7115 3.72974Z" fill="white"/>
<path d="M41.6682 21.5367C41.6682 21.3329 41.8341 21.1672 42.0392 21.1672C42.2442 21.1672 42.4101 21.3329 42.4101 21.5367C42.4101 21.7405 42.2442 21.9062 42.0392 21.9062C41.8341 21.9062 41.6682 21.7405 41.6682 21.5367ZM42.0392 21.8175C42.1949 21.8175 42.3213 21.6917 42.3213 21.5367C42.3213 21.3814 42.1949 21.2562 42.0392 21.2562C41.8831 21.2562 41.7573 21.3815 41.7573 21.5367C41.7573 21.6917 41.8832 21.8175 42.0392 21.8175ZM41.989 21.6991H41.9131V21.3745H42.0507C42.0795 21.3745 42.1088 21.3745 42.1341 21.3907C42.1606 21.4084 42.1755 21.4398 42.1755 21.4721C42.1755 21.5085 42.1538 21.5425 42.1189 21.5558L42.1789 21.6991H42.0947L42.0449 21.5706H41.9891V21.6991H41.989ZM41.989 21.5149H42.0312C42.0469 21.5149 42.0635 21.5163 42.0776 21.5086C42.0901 21.5006 42.0966 21.4857 42.0966 21.4714C42.0966 21.459 42.0888 21.4446 42.0781 21.4384C42.0648 21.4302 42.0438 21.432 42.0296 21.432H41.989V21.5149Z" fill="white"/>
<path d="M13.6053 16.415C13.4743 16.3998 13.4168 16.3958 13.3269 16.3958C12.6199 16.3958 12.2621 16.6371 12.2621 17.1135C12.2621 17.4073 12.4367 17.5941 12.7092 17.5941C13.2173 17.5941 13.5834 17.1127 13.6053 16.415ZM14.5122 18.5166H13.4789L13.5026 18.0277C13.1874 18.4141 12.7669 18.5978 12.1954 18.5978C11.5193 18.5978 11.0559 18.0723 11.0559 17.3093C11.0559 16.1613 11.8621 15.4914 13.2458 15.4914C13.3871 15.4914 13.5685 15.5041 13.754 15.5277C13.7927 15.3722 13.8029 15.3056 13.8029 15.222C13.8029 14.9094 13.5855 14.7929 13.0029 14.7929C12.3927 14.786 11.8895 14.9375 11.6829 15.0052C11.6959 14.9269 11.8557 13.9441 11.8557 13.9441C12.4772 13.7628 12.8871 13.6946 13.3485 13.6946C14.4193 13.6946 14.9866 14.1731 14.9855 15.0775C14.9876 15.3199 14.9473 15.6189 14.8845 16.012C14.7762 16.6955 14.544 18.1597 14.5122 18.5166Z" fill="white"/>
<path d="M10.5348 18.5167H9.28762L10.002 14.0584L8.40679 18.5167H7.55693L7.45185 14.0839L6.70094 18.5167H5.53345L6.50862 12.717H8.30196L8.41076 15.9633L9.50465 12.717H11.4993L10.5348 18.5167Z" fill="white"/>
<path d="M33.2529 16.415C33.1225 16.3998 33.0647 16.3958 32.975 16.3958C32.2684 16.3958 31.9105 16.6371 31.9105 17.1135C31.9105 17.4073 32.0849 17.5941 32.3574 17.5941C32.8655 17.5941 33.2318 17.1127 33.2529 16.415ZM34.1607 18.5166H33.1273L33.1507 18.0277C32.8355 18.4141 32.4147 18.5978 31.8438 18.5978C31.1676 18.5978 30.7046 18.0723 30.7046 17.3093C30.7046 16.1613 31.5102 15.4914 32.8942 15.4914C33.0355 15.4914 33.2166 15.5041 33.4019 15.5277C33.4406 15.3722 33.4508 15.3056 33.4508 15.222C33.4508 14.9094 33.2337 14.7929 32.651 14.7929C32.0409 14.786 31.5383 14.9375 31.3308 15.0052C31.3438 14.9269 31.5041 13.9441 31.5041 13.9441C32.1257 13.7628 32.5353 13.6946 32.9962 13.6946C34.0676 13.6946 34.6348 14.1731 34.6337 15.0775C34.6359 15.3199 34.5956 15.6189 34.5327 16.012C34.4249 16.6955 34.1921 18.1597 34.1607 18.5166Z" fill="white"/>
<path d="M20.0552 18.445C19.7139 18.552 19.4478 18.5978 19.1592 18.5978C18.5216 18.5978 18.1737 18.2332 18.1737 17.5617C18.1646 17.3534 18.2654 16.8051 18.3446 16.3046C18.4166 15.864 18.8853 13.0862 18.8853 13.0862H20.1251L19.9803 13.8001H20.7291L20.56 14.9336H19.8085C19.6645 15.8306 19.4594 16.9479 19.4571 17.096C19.4571 17.339 19.5874 17.4452 19.884 17.4452C20.0261 17.4452 20.1362 17.4308 20.2203 17.4006L20.0552 18.445Z" fill="white"/>
<path d="M23.8566 18.4069C23.4307 18.5364 23.0198 18.599 22.5843 18.5979C21.1965 18.5966 20.4731 17.8753 20.4731 16.4939C20.4731 14.8816 21.3934 13.6948 22.6427 13.6948C23.6648 13.6948 24.3176 14.3593 24.3176 15.4016C24.3176 15.7474 24.2728 16.085 24.1648 16.5616H21.6961C21.6125 17.2457 22.0525 17.5308 22.7736 17.5308C23.2174 17.5308 23.6177 17.4398 24.0627 17.2338L23.8566 18.4069ZM23.1597 15.6107C23.1666 15.5125 23.2913 14.7688 22.5829 14.7688C22.188 14.7688 21.9056 15.0685 21.7906 15.6107H23.1597Z" fill="white"/>
<path d="M15.2603 15.2909C15.2603 15.8876 15.551 16.299 16.2102 16.6079C16.7153 16.8441 16.7934 16.9142 16.7934 17.1283C16.7934 17.4224 16.5707 17.5551 16.0772 17.5551C15.7051 17.5551 15.359 17.4973 14.9599 17.369C14.9599 17.369 14.7958 18.4085 14.7883 18.4582C15.0719 18.5198 15.3247 18.5768 16.0862 18.5978C17.4022 18.5978 18.01 18.0991 18.01 17.0213C18.01 16.3732 17.7555 15.9929 17.1308 15.7071C16.6079 15.4682 16.5479 15.4149 16.5479 15.1946C16.5479 14.9396 16.7551 14.8095 17.1583 14.8095C17.4031 14.8095 17.7375 14.8355 18.0543 14.8804L18.2319 13.7864C17.9089 13.7355 17.4193 13.6946 17.1343 13.6946C15.739 13.6946 15.256 14.4199 15.2603 15.2909Z" fill="white"/>
<path d="M29.9224 13.8189C30.2688 13.8189 30.5917 13.9094 31.0368 14.1323L31.2408 12.8735C31.0582 12.8021 30.415 12.3831 29.8701 12.3831C29.0355 12.3831 28.3299 12.7952 27.8337 13.4754C27.1099 13.2368 26.8123 13.719 26.4475 14.1994L26.1235 14.2745C26.148 14.1164 26.1702 13.9592 26.1627 13.8003H25.0173C24.8608 15.2599 24.5835 16.7383 24.3664 18.1999L24.3098 18.5169H25.5576C25.7658 17.1702 25.8799 16.308 25.9493 15.7244L26.4191 15.4643C26.4893 15.2045 26.709 15.1166 27.1498 15.1273C27.0923 15.4351 27.0613 15.7589 27.0613 16.0944C27.0613 17.6374 27.8978 18.5981 29.2405 18.5981C29.5864 18.5981 29.8831 18.5527 30.3426 18.4288L30.5621 17.1066C30.1488 17.3091 29.8096 17.4044 29.5024 17.4044C28.7773 17.4044 28.3386 16.8717 28.3386 15.9914C28.3387 14.7143 28.9912 13.8189 29.9224 13.8189Z" fill="white"/>
<path d="M10.8934 18.1721H9.64595L10.3609 13.7143L8.76563 18.1721H7.91551L7.81043 13.7398L7.05951 18.1721H5.89209L6.86726 12.3733H8.6606L8.71103 15.9632L9.92089 12.3733H11.858L10.8934 18.1721Z" fill="#0E479C"/>
<path d="M40.4815 12.717L40.205 14.3928C39.8639 13.9461 39.4975 13.6228 39.0138 13.6228C38.3845 13.6228 37.8117 14.0977 37.4367 14.7964C36.9146 14.6886 36.3745 14.5058 36.3745 14.5058L36.3743 14.51C36.4164 14.1193 36.4332 13.8811 36.4295 13.8001H35.2839C35.1278 15.2598 34.8505 16.7382 34.6338 18.1998L34.5767 18.5167H35.8241C35.9927 17.4278 36.1217 16.5236 36.2167 15.8065C36.6428 15.4233 36.8561 15.0889 37.2868 15.1112C37.0961 15.57 36.9844 16.0987 36.9844 16.6409C36.9844 17.8201 37.5838 18.5979 38.4905 18.5979C38.9476 18.5979 39.2983 18.4411 39.6404 18.0775L39.582 18.516H40.7618L41.7116 12.7171H40.4815V12.717ZM38.9218 17.4267C38.4972 17.4267 38.2828 17.114 38.2828 16.497C38.2828 15.57 38.6842 14.9126 39.25 14.9126C39.6785 14.9126 39.9105 15.2377 39.9105 15.8367C39.9105 16.7717 39.5028 17.4267 38.9218 17.4267Z" fill="white"/>
<path d="M13.9645 16.0713C13.8338 16.0562 13.7759 16.0522 13.6863 16.0522C12.9794 16.0522 12.6217 16.2934 12.6217 16.7698C12.6217 17.0631 12.7964 17.2505 13.0684 17.2505C13.577 17.2504 13.9431 16.769 13.9645 16.0713ZM14.8718 18.1722H13.8385L13.862 17.6841C13.547 18.0697 13.126 18.2541 12.555 18.2541C11.8788 18.2541 11.4155 17.7287 11.4155 16.9657C11.4155 15.8171 12.2214 15.1477 13.6054 15.1477C13.7467 15.1477 13.9281 15.1604 14.1134 15.1841C14.1521 15.0286 14.1623 14.962 14.1623 14.8778C14.1623 14.5652 13.9452 14.4492 13.3625 14.4492C12.7522 14.4424 12.2492 14.5939 12.0423 14.6608C12.0553 14.5827 12.2151 13.6011 12.2151 13.6011C12.8364 13.419 13.2468 13.3508 13.7076 13.3508C14.7787 13.3508 15.3462 13.8296 15.3452 14.7333C15.347 14.9766 15.3065 15.2755 15.2438 15.668C15.1358 16.351 14.9034 17.816 14.8718 18.1722Z" fill="#0E479C"/>
<path d="M31.5998 12.529L31.3956 13.788C30.9508 13.5654 30.6276 13.4747 30.2815 13.4747C29.3503 13.4747 28.6975 14.3701 28.6975 15.6471C28.6975 16.5274 29.1364 17.0598 29.8613 17.0598C30.1685 17.0598 30.5074 16.9648 30.9207 16.7621L30.7018 18.0837C30.242 18.2084 29.9455 18.2538 29.5994 18.2538C28.2569 18.2538 27.4202 17.2931 27.4202 15.7501C27.4202 13.6768 28.5759 12.2278 30.2289 12.2278C30.7734 12.2278 31.4169 12.4576 31.5998 12.529Z" fill="#0E479C"/>
<path d="M33.6116 16.0713C33.4809 16.0562 33.4233 16.0522 33.3334 16.0522C32.6268 16.0522 32.2689 16.2934 32.2689 16.7698C32.2689 17.0631 32.4435 17.2505 32.7158 17.2505C33.2238 17.2504 33.5902 16.769 33.6116 16.0713ZM34.519 18.1722H33.4854L33.5091 17.6841C33.1939 18.0697 32.7731 18.2541 32.2022 18.2541C31.5262 18.2541 31.0627 17.7287 31.0627 16.9657C31.0627 15.8171 31.8689 15.1477 33.2523 15.1477C33.3939 15.1477 33.575 15.1604 33.7606 15.1841C33.799 15.0286 33.8094 14.962 33.8094 14.8778C33.8094 14.5652 33.5923 14.4492 33.0097 14.4492C32.3996 14.4424 31.8963 14.5939 31.6894 14.6608C31.7024 14.5827 31.8624 13.6011 31.8624 13.6011C32.4838 13.419 32.8939 13.3508 33.3547 13.3508C34.4261 13.3508 34.9934 13.8296 34.992 14.7333C34.9941 14.9766 34.9539 15.2755 34.891 15.668C34.7833 16.351 34.5502 17.816 34.519 18.1722Z" fill="#0E479C"/>
<path d="M20.4146 18.101C20.0729 18.208 19.8068 18.2544 19.5186 18.2544C18.881 18.2544 18.533 17.8898 18.533 17.2183C18.5242 17.0094 18.625 16.4616 18.7042 15.9612C18.7759 15.52 19.2447 12.7424 19.2447 12.7424H20.4842L20.3396 13.4566H20.9758L20.8065 14.5896H20.1681C20.0241 15.4871 19.8185 16.6036 19.8163 16.752C19.8163 16.9959 19.947 17.1012 20.2433 17.1012C20.3854 17.1012 20.4953 17.0875 20.5795 17.0572L20.4146 18.101Z" fill="#0E479C"/>
<path d="M24.2155 18.0631C23.7899 18.1926 23.3784 18.255 22.9432 18.2542C21.5554 18.2529 20.832 17.5315 20.832 16.1502C20.832 14.5374 21.7523 13.3508 23.0016 13.3508C24.0237 13.3508 24.6765 14.0151 24.6765 15.0578C24.6765 15.404 24.6317 15.7415 24.524 16.2179H22.0552C21.9717 16.902 22.4117 17.1874 23.1328 17.1874C23.5763 17.1874 23.9768 17.0961 24.4216 16.8896L24.2155 18.0631ZM23.5184 15.2662C23.5259 15.1682 23.6502 14.4243 22.9416 14.4243C22.5469 14.4243 22.2645 14.7248 22.1496 15.2662H23.5184Z" fill="#0E479C"/>
<path d="M15.6195 14.9474C15.6195 15.544 15.9102 15.9548 16.5694 16.2643C17.0745 16.5005 17.1526 16.5708 17.1526 16.7848C17.1526 17.0788 16.9297 17.2115 16.4365 17.2115C16.0643 17.2115 15.7181 17.1536 15.3186 17.0254C15.3186 17.0254 15.1552 18.065 15.1477 18.1147C15.4306 18.1762 15.6837 18.2325 16.4453 18.2542C17.7615 18.2542 18.3691 17.7555 18.3691 16.678C18.3691 16.0296 18.1149 15.6494 17.4899 15.3636C16.9672 15.1241 16.9067 15.0716 16.9067 14.8511C16.9067 14.5963 17.1144 14.4652 17.5174 14.4652C17.7619 14.4652 18.0963 14.492 18.4136 14.5368L18.591 13.4426C18.2683 13.3917 17.7787 13.3508 17.4936 13.3508C16.0982 13.3508 15.6155 14.0756 15.6195 14.9474Z" fill="#0E479C"/>
<path d="M41.1201 18.1721H39.9401L39.9988 17.7331C39.6566 18.0972 39.306 18.2541 38.8489 18.2541C37.9422 18.2541 37.343 17.4762 37.343 16.2971C37.343 14.7283 38.2724 13.4059 39.3723 13.4059C39.8561 13.4059 40.2222 13.6025 40.563 14.049L40.8398 12.3733H42.0699L41.1201 18.1721ZM39.2804 17.0824C39.8612 17.0824 40.2692 16.4274 40.2692 15.493C40.2692 14.894 40.0369 14.5689 39.6084 14.5689C39.0428 14.5689 38.6409 15.226 38.6409 16.1533C38.6409 16.7703 38.8558 17.0824 39.2804 17.0824Z" fill="#0E479C"/>
<path d="M35.6432 13.4563C35.487 14.916 35.2097 16.3946 34.9929 17.8553L34.9358 18.1722H36.1832C36.6294 15.2884 36.7374 14.7253 37.4368 14.7958C37.5483 14.2056 37.7558 13.6886 37.9104 13.4277C37.388 13.3195 37.0963 13.6133 36.7144 14.1714C36.7446 13.9301 36.7997 13.6958 36.7888 13.4564H35.6432" fill="#0E479C"/>
<path d="M25.3757 13.4563C25.2192 14.916 24.9419 16.3946 24.725 17.8553L24.6682 18.1722H25.9162C26.3618 15.2884 26.4696 14.7253 27.1688 14.7958C27.2808 14.2056 27.4882 13.6886 27.6423 13.4277C27.1204 13.3195 26.8284 13.6133 26.4468 14.1714C26.477 13.9301 26.5316 13.6958 26.5212 13.4564H25.3757" fill="#0E479C"/>
<path d="M41.6682 17.8032C41.6682 17.5986 41.8344 17.4338 42.0392 17.4338C42.2442 17.4338 42.4101 17.5986 42.4101 17.8032C42.4101 18.0068 42.2442 18.1724 42.0392 18.1724C41.8343 18.1724 41.6682 18.0068 41.6682 17.8032ZM42.0392 18.0838C42.1952 18.0838 42.321 17.958 42.321 17.8033C42.321 17.6483 42.1951 17.5225 42.0392 17.5225C41.8834 17.5225 41.757 17.6484 41.757 17.8033C41.757 17.958 41.8834 18.0838 42.0392 18.0838ZM41.989 17.9646H41.9129V17.6409H42.0507C42.0793 17.6409 42.1089 17.6414 42.1337 17.6571C42.1604 17.6751 42.1755 17.7059 42.1755 17.7382C42.1755 17.7749 42.154 17.8091 42.1187 17.8221L42.179 17.9645H42.0945L42.0446 17.8366H41.9889V17.9646H41.989ZM41.989 17.7812H42.0308C42.0465 17.7812 42.0636 17.7824 42.0774 17.7749C42.09 17.7669 42.0964 17.7518 42.0964 17.7374C42.0964 17.7254 42.0889 17.7112 42.078 17.704C42.0649 17.6966 42.0433 17.6987 42.0292 17.6987H41.9889V17.7812H41.989Z" fill="#0E479C"/>
</svg>
