<svg width="58" height="23" viewBox="0 0 58 23" fill="none" xmlns="http://www.w3.org/2000/svg">
<mask id="mask0_101_835" style="mask-type:alpha" maskUnits="userSpaceOnUse" x="0" y="0" width="58" height="23">
<rect y="0.163086" width="58" height="22" fill="#D9D9D9"/>
</mask>
<g mask="url(#mask0_101_835)">
<path d="M53.7032 19.8499L53.1594 17.0999H47.0839L46.1173 19.8303L41.2477 19.8401C43.5659 14.2011 45.8891 8.56424 48.2173 2.92945C48.6137 1.97367 49.3169 1.48723 50.3537 1.49212C51.1463 1.49945 52.4393 1.49945 54.2348 1.49456L58 19.8426L53.7032 19.8499ZM48.4518 13.333H52.3668L50.9047 6.43967L48.4518 13.333ZM17.0617 1.48967L21.9578 1.49456L14.3888 19.8523L9.43225 19.8475C8.18585 14.9985 6.95496 10.1454 5.73958 5.28834C5.49792 4.32034 5.01942 3.64323 4.09867 3.32301C3.27942 3.03701 1.914 2.59701 0 1.99812V1.49701H7.82275C9.17608 1.49701 9.96633 2.15945 10.2201 3.51856C10.4763 4.88012 11.1191 8.34634 12.1534 13.9172L17.0617 1.48967ZM28.6858 1.49456L24.8143 19.8475L20.155 19.8426L24.0217 1.48967L28.6858 1.49456ZM38.135 1.15479C39.5294 1.15479 41.2863 1.59479 42.2965 1.99812L41.4797 5.80412C40.5662 5.43256 39.063 4.93145 37.7991 4.94856C35.9624 4.98034 34.8266 5.76012 34.8266 6.50812C34.8266 7.72545 36.7986 8.33901 38.8286 9.66879C41.1462 11.1843 41.4507 12.5459 41.4217 14.0248C41.3903 17.095 38.8286 20.1237 33.4249 20.1237C30.9599 20.087 30.0706 19.8768 28.0599 19.1557L28.9106 15.1835C30.9575 16.0512 31.8251 16.3275 33.5747 16.3275C35.177 16.3275 36.5521 15.6723 36.5642 14.5308C36.5738 13.7192 36.0808 13.3159 34.2828 12.3137C32.4848 11.309 29.9618 9.91812 29.9957 7.12656C30.0368 3.55278 33.3838 1.15479 38.1374 1.15479H38.135Z" fill="white"/>
</g>
</svg>
