<svg width="24" height="25" viewBox="0 0 24 25" fill="none" xmlns="http://www.w3.org/2000/svg">
<g clip-path="url(#clip0_101_765)">
<path d="M12.7196 2.19315C6.62958 1.76315 1.59958 6.79315 2.02958 12.8832C2.38958 18.1732 7.00958 22.1632 12.3096 22.1632H15.9996C16.5496 22.1632 16.9996 21.7132 16.9996 21.1632C16.9996 20.6132 16.5496 20.1632 15.9996 20.1632H12.3296C8.59958 20.1632 5.17958 17.7432 4.24958 14.1332C2.75958 8.33315 8.15958 2.92315 13.9596 4.42315C17.5796 5.34315 19.9996 8.76315 19.9996 12.4932V13.5932C19.9996 14.3832 19.2896 15.1632 18.4996 15.1632C17.7096 15.1632 16.9996 14.3832 16.9996 13.5932V12.3432C16.9996 9.83315 15.2196 7.57315 12.7396 7.22315C9.33958 6.73315 6.46958 9.67315 7.07958 13.0932C7.41958 15.0032 8.90958 16.5832 10.7996 17.0332C12.6396 17.4632 14.3896 16.8732 15.5396 15.7032C16.4296 16.9232 18.2096 17.5632 19.8396 16.9132C21.1796 16.3832 21.9996 15.0132 21.9996 13.5732V12.4832C21.9996 7.17315 18.0096 2.55315 12.7196 2.19315ZM11.9996 15.1632C10.3396 15.1632 8.99958 13.8232 8.99958 12.1632C8.99958 10.5032 10.3396 9.16315 11.9996 9.16315C13.6596 9.16315 14.9996 10.5032 14.9996 12.1632C14.9996 13.8232 13.6596 15.1632 11.9996 15.1632Z" fill="#0E479C"/>
</g>
<defs>
<clipPath id="clip0_101_765">
<rect width="24" height="24" fill="white" transform="translate(0 0.163086)"/>
</clipPath>
</defs>
</svg>
