<svg width="20" height="21" viewBox="0 0 20 21" fill="none" xmlns="http://www.w3.org/2000/svg">
<path fill-rule="evenodd" clip-rule="evenodd" d="M10 18.6785C14.4183 18.6785 18 15.1293 18 10.7511C18 6.37294 14.4183 2.82373 10 2.82373C5.58172 2.82373 2 6.37294 2 10.7511C2 15.1293 5.58172 18.6785 10 18.6785ZM13.7071 10.0504L10.7071 7.07765C10.3166 6.69067 9.68342 6.69067 9.29289 7.07765C8.90237 7.46463 8.90237 8.09205 9.29289 8.47903L10.5858 9.76019L7 9.76019C6.44772 9.76019 6 10.2038 6 10.7511C6 11.2984 6.44772 11.742 7 11.742H10.5858L9.29289 13.0232C8.90237 13.4102 8.90237 14.0376 9.29289 14.4246C9.68342 14.8115 10.3166 14.8115 10.7071 14.4246L13.7071 11.4518C14.0976 11.0648 14.0976 10.4374 13.7071 10.0504Z" fill="#0E479C"/>
</svg>
