<svg width="22" height="22" viewBox="0 0 22 22" fill="none" xmlns="http://www.w3.org/2000/svg">
<g clip-path="url(#clip0_101_265)">
<path d="M9.27228 12.0811C9.27228 12.7049 8.76657 13.2107 8.1427 13.2107C7.51886 13.2107 7.01315 12.705 7.01315 12.0811C7.01315 11.4572 7.51886 10.9515 8.1427 10.9515C8.76657 10.9515 9.27228 11.4573 9.27228 12.0811ZM13.8573 10.9515C13.2335 10.9515 12.7277 11.4572 12.7277 12.0811C12.7277 12.705 13.2335 13.2107 13.8573 13.2107C14.4811 13.2107 14.9869 12.705 14.9869 12.0811C14.9869 11.4573 14.4812 10.9515 13.8573 10.9515ZM22 11.4514V13.5982C22 14.676 21.1263 15.5497 20.0485 15.5497H18.6323C17.2291 19.4459 13.6459 21.7992 11 21.7992C8.3541 21.7992 4.77087 19.4459 3.36765 15.5497H1.95153C0.873709 15.5497 0 14.676 0 13.5982V11.4514C0 10.7098 0.413794 10.0648 1.02307 9.73462C1.04353 6.68679 1.93183 4.30644 3.66713 2.66087C5.38838 1.02862 7.85551 0.200928 11 0.200928C14.1445 0.200928 16.6116 1.02862 18.3329 2.66083C20.0681 4.30641 20.9564 6.68679 20.9769 9.73458C21.5862 10.0648 22 10.7098 22 11.4514ZM17.8696 12.0882C17.8696 11.5861 17.8439 11.1143 17.8059 10.6571C16.9398 9.86468 15.3675 9.26342 13.3832 9.04C13.6437 9.33297 13.8688 9.71837 14.0053 10.2257C12.7898 9.26812 10.404 9.49603 8.59938 7.35326C8.49592 7.23359 8.40644 7.11924 8.32909 7.01474C8.32819 7.01348 8.32718 7.01251 8.32628 7.01129L8.3265 7.01136C8.00545 6.57719 7.89599 6.31894 7.88988 6.60479C7.83693 9.06768 6.09127 10.9877 4.15282 11.2586C4.14057 11.5294 4.13054 11.8029 4.13054 12.0883C4.13054 13.1293 4.30053 14.078 4.58955 14.9331C5.67841 16.2465 7.47659 16.6173 9.06813 16.7157C9.36359 16.2456 10.0265 15.9175 10.7985 15.9175C11.8452 15.9175 12.6937 16.5197 12.6937 17.2628C12.6937 18.0058 11.8452 18.608 10.7985 18.608C9.99339 18.608 9.30729 18.2511 9.03269 17.7484C7.92036 17.6838 6.69756 17.4941 5.60774 16.9795C7.14033 19.2385 9.51626 20.4331 11 20.4331C13.3315 20.4331 17.8696 17.4877 17.8696 12.0882ZM19.802 9.49992C19.6778 4.18142 16.642 1.37189 11 1.37189C5.35797 1.37189 2.32226 4.18142 2.19802 9.49992H2.94886C3.2234 7.70731 3.80363 6.23306 4.6846 5.09948C6.08846 3.29318 8.21326 2.37727 11 2.37727C13.7867 2.37727 15.9115 3.29318 17.3155 5.09948C18.1964 6.23302 18.7766 7.70731 19.0512 9.49992H19.802Z" fill="#0E479C"/>
</g>
<defs>
<clipPath id="clip0_101_265">
<rect width="22" height="22" fill="white"/>
</clipPath>
</defs>
</svg>
