<svg width="20" height="20" viewBox="0 0 20 20" fill="none" xmlns="http://www.w3.org/2000/svg">
<g clip-path="url(#clip0_101_483)">
<path d="M9.16675 18.2913V18.3333H10.8334V18.2913C15.0384 17.8717 18.3334 14.3138 18.3334 10C18.3334 5.40501 14.5951 1.66667 10.0001 1.66667C5.40508 1.66667 1.66675 5.40501 1.66675 10C1.66675 14.3138 4.96175 17.8717 9.16675 18.2913ZM10.0001 3.33334C13.6759 3.33334 16.6667 6.32417 16.6667 10C16.6667 13.3933 14.1167 16.1967 10.8334 16.6088V14.1667H9.16675V16.6088C6.15717 16.2308 3.76925 13.8429 3.39133 10.8333H5.83342V9.16667H3.39133C3.80341 5.88334 6.60675 3.33334 10.0001 3.33334Z" fill="#4D4D4D"/>
<path d="M14.1667 9.16668H10.8334V5.83334H9.16675V9.16668V10V10.8333H14.1667V9.16668Z" fill="#4D4D4D"/>
</g>
<defs>
<clipPath id="clip0_101_483">
<rect width="20" height="20" fill="white"/>
</clipPath>
</defs>
</svg>
