<svg width="32" height="33" viewBox="0 0 32 33" fill="none" xmlns="http://www.w3.org/2000/svg">
<path d="M4 27.163H26M10.4121 27.1634C8.4983 26.285 6.87684 24.8757 5.74025 23.103C4.60365 21.3304 3.99966 19.2687 4 17.163V11.163H26M26 11.163V17.163C26.0003 19.2687 25.3963 21.3304 24.2597 23.1031C23.1231 24.8757 21.5016 26.285 19.5879 27.1635M26 11.163C27.0609 11.163 28.0783 11.5844 28.8284 12.3345C29.5786 13.0847 30 14.1021 30 15.163V16.163C30 17.2238 29.5786 18.2412 28.8284 18.9914C28.0783 19.7415 27.0609 20.163 26 20.163H25.5777M19 3.16296V7.16296M15 3.16296V7.16296M11 3.16296V7.16296" stroke="#0E479C" stroke-width="2" stroke-linecap="round" stroke-linejoin="round"/>
</svg>
