<svg width="22" height="22" viewBox="0 0 22 22" fill="none" xmlns="http://www.w3.org/2000/svg">
<g clip-path="url(#clip0_101_192)">
<path fill-rule="evenodd" clip-rule="evenodd" d="M16.5 1.83333V4.54667C16.5 4.78978 16.4034 5.02294 16.2315 5.19485C16.0596 5.36676 15.8264 5.46333 15.5833 5.46333C15.3402 5.46333 15.1071 5.36676 14.9352 5.19485C14.7632 5.02294 14.6667 4.78978 14.6667 4.54667V2.29167C14.6667 2.17011 14.6184 2.05353 14.5324 1.96758C14.4465 1.88162 14.3299 1.83333 14.2083 1.83333H2.29167C2.17011 1.83333 2.05353 1.88162 1.96758 1.96758C1.88162 2.05353 1.83333 2.17011 1.83333 2.29167V19.7083C1.83173 19.7682 1.84219 19.8277 1.86408 19.8835C1.88597 19.9392 1.91885 19.99 1.96075 20.0327C2.00266 20.0755 2.05274 20.1094 2.10802 20.1324C2.16329 20.1554 2.22263 20.1671 2.2825 20.1667H13.75C13.9931 20.1667 14.2263 20.2632 14.3982 20.4352C14.5701 20.6071 14.6667 20.8402 14.6667 21.0833C14.6667 21.3264 14.5701 21.5596 14.3982 21.7315C14.2263 21.9034 13.9931 22 13.75 22H1.83333C1.34755 21.9986 0.882076 21.8049 0.538574 21.4614C0.195071 21.1179 0.00145083 20.6525 0 20.1667L0 1.83333C0.00145083 1.34755 0.195071 0.882076 0.538574 0.538574C0.882076 0.195071 1.34755 0.00145083 1.83333 0L14.6667 0C15.1525 0.00145083 15.6179 0.195071 15.9614 0.538574C16.3049 0.882076 16.4986 1.34755 16.5 1.83333Z" fill="#363232"/>
<path fill-rule="evenodd" clip-rule="evenodd" d="M7.33879 17.4505C7.16738 12.7599 11.1283 10.2565 13.7555 9.39209V9.16659C13.7538 8.81495 13.8538 8.47032 14.0432 8.17406C14.2326 7.8778 14.5035 7.64251 14.8234 7.49642C15.133 7.35934 15.474 7.30836 15.8102 7.34886C16.1464 7.38935 16.4654 7.51982 16.7337 7.7265L21.317 11.3932C21.7497 11.7461 22.0009 12.275 22 12.8333C22 13.3869 21.7479 13.9103 21.3134 14.2541L16.7465 17.9079C16.4847 18.1221 16.1687 18.2596 15.8335 18.3053C15.4983 18.351 15.1571 18.303 14.8474 18.1668C14.5378 18.0305 14.2719 17.8113 14.0792 17.5332C13.8865 17.2552 13.7744 16.9293 13.7555 16.5916C13.1556 16.6478 12.5756 16.8363 12.0573 17.1434C11.539 17.4506 11.0953 17.8689 10.758 18.3681C10.735 18.4093 10.7094 18.4506 10.6819 18.4891C10.329 18.9722 9.76521 19.2554 9.16663 19.2499C8.68674 19.25 8.22608 19.0613 7.8841 18.7246C7.54212 18.388 7.34625 17.9303 7.33879 17.4505ZM15.3083 14.9233C15.396 15.0092 15.4656 15.112 15.5128 15.2253C15.56 15.3387 15.584 15.4604 15.5833 15.5833V16.4898L20.1666 12.8232L15.5833 9.16659V10.0833C15.5833 10.2888 15.5143 10.4884 15.3873 10.6499C15.2603 10.8115 15.0827 10.9257 14.883 10.9743C14.6419 11.0329 8.99338 12.4739 9.21154 17.3744C10.295 15.6667 12.1192 14.7583 14.6373 14.6666H14.6666C14.9058 14.6651 15.1361 14.7573 15.3083 14.9233ZM20.1666 12.8241V12.8333V12.8241ZM11 5.49992C11 5.74303 10.9034 5.97619 10.7315 6.1481C10.5596 6.32001 10.3264 6.41659 10.0833 6.41659H4.58329C4.34018 6.41659 4.10702 6.32001 3.93511 6.1481C3.7632 5.97619 3.66663 5.74303 3.66663 5.49992C3.66663 5.2568 3.7632 5.02365 3.93511 4.85174C4.10702 4.67983 4.34018 4.58325 4.58329 4.58325H10.0833C10.3264 4.58325 10.5596 4.67983 10.7315 4.85174C10.9034 5.02365 11 5.2568 11 5.49992ZM5.49996 13.7499H4.58329C4.34018 13.7499 4.10702 13.6533 3.93511 13.4814C3.7632 13.3095 3.66663 13.0764 3.66663 12.8333C3.66663 12.5901 3.7632 12.357 3.93511 12.1851C4.10702 12.0132 4.34018 11.9166 4.58329 11.9166H5.49996C5.74307 11.9166 5.97623 12.0132 6.14814 12.1851C6.32005 12.357 6.41663 12.5901 6.41663 12.8333C6.41663 13.0764 6.32005 13.3095 6.14814 13.4814C5.97623 13.6533 5.74307 13.7499 5.49996 13.7499ZM8.24996 10.0833H4.58329C4.34018 10.0833 4.10702 9.98667 3.93511 9.81477C3.7632 9.64286 3.66663 9.4097 3.66663 9.16659C3.66663 8.92347 3.7632 8.69031 3.93511 8.5184C4.10702 8.3465 4.34018 8.24992 4.58329 8.24992H8.24996C8.49307 8.24992 8.72623 8.3465 8.89814 8.5184C9.07005 8.69031 9.16663 8.92347 9.16663 9.16659C9.16663 9.4097 9.07005 9.64286 8.89814 9.81477C8.72623 9.98667 8.49307 10.0833 8.24996 10.0833Z" fill="#363232"/>
</g>
<defs>
<clipPath id="clip0_101_192">
<rect width="22" height="22" fill="white"/>
</clipPath>
</defs>
</svg>
