<svg width="32" height="33" viewBox="0 0 32 33" fill="none" xmlns="http://www.w3.org/2000/svg">
<path d="M0 16.1631C0 24.9996 7.16344 32.1631 16 32.1631C24.8366 32.1631 32 24.9996 32 16.1631C32 7.32653 24.8366 0.163086 16 0.163086C7.16344 0.163086 0 7.32653 0 16.1631Z" fill="#1877F2"/>
<path d="M24 16.1631C24 11.7631 20.4 8.16309 16 8.16309C11.6 8.16309 8 11.7631 8 16.1631C8 20.1631 10.9 23.4631 14.7 24.0631V18.4631H12.7V16.1631H14.7V14.3631C14.7 12.3631 15.9 11.2631 17.7 11.2631C18.6 11.2631 19.5 11.4631 19.5 11.4631V13.4631H18.5C17.5 13.4631 17.2 14.0631 17.2 14.6631V16.1631H19.4L19 18.4631H17.1V24.1631C21.1 23.5631 24 20.1631 24 16.1631Z" fill="white"/>
</svg>
