<svg width="50" height="50" viewBox="0 0 50 50" fill="none" xmlns="http://www.w3.org/2000/svg">
<path d="M25.0001 0C11.2154 0 0.000244141 11.2153 0.000244141 24.9999C0.000244141 38.7848 11.2154 49.9999 25.0001 49.9999C38.785 49.9999 49.9999 38.7847 49.9999 24.9999C50 11.2153 38.785 0 25.0001 0ZM25.0001 46.951C12.8959 46.951 3.04905 37.1045 3.04905 24.9999C3.04905 12.8957 12.8959 3.04881 25.0001 3.04881C37.1048 3.04881 46.9512 12.8957 46.9512 24.9999C46.9512 37.1045 37.1049 46.951 25.0001 46.951ZM18.6124 40.5552L19.7581 40.9713L18.2813 45.042L17.1357 44.6264L18.6124 40.5552ZM13.6336 37.3474L14.5685 38.1304L11.7879 41.4504L10.8531 40.6677L13.6336 37.3474ZM10.0473 32.6395L10.6575 33.6941L6.90943 35.8634L6.29906 34.8084L10.0473 32.6395ZM8.50267 28.1868L4.23823 28.9389L4.02658 27.7384L8.29112 26.9863L8.50267 28.1868ZM8.35935 22.2746L4.0947 21.5218L4.30635 20.3215L8.571 21.0737L8.35935 22.2746ZM10.249 16.6676L6.49929 14.5025L7.10901 13.4468L10.8588 15.6122L10.249 16.6676ZM12.0924 7.94711L14.8758 11.2642L13.9425 12.0474L11.1586 8.7304L12.0924 7.94711ZM18.6564 4.48055L20.1372 8.54998L18.9924 8.96708L17.511 4.89766L18.6564 4.48055ZM26.0106 7.80053H24.7917V3.4695H26.0106V7.80053ZM32.1219 4.61908L33.2678 5.03596L31.7873 9.10561L30.6416 8.6885L32.1219 4.61908ZM36.7649 12.3034L35.8306 11.5195L38.615 8.20251L39.5484 8.98645L36.7649 12.3034ZM40.35 17.0171L39.7404 15.9607L43.4912 13.7956L44.1008 14.8517L40.35 17.0171ZM41.8982 21.47L46.1627 20.7183L46.3749 21.9197L42.11 22.6714L41.8982 21.47ZM42.0425 27.3806L46.3069 28.1315L46.0951 29.3337L41.8303 28.5809L42.0425 27.3806ZM40.1545 32.9885L43.9048 35.1536L43.295 36.2099L39.5448 34.0443L40.1545 32.9885ZM36.4591 37.6117L39.2435 40.9285L38.3086 41.7121L35.5257 38.3948L36.4591 37.6117ZM31.4097 40.6879L32.8913 44.7573L31.7456 45.1746L30.264 41.1052L31.4097 40.6879ZM24.3904 41.8563H25.6099V46.1879H24.3904V41.8563ZM27.7583 25.0005C27.7583 26.024 27.194 26.9066 26.3662 27.3829V30.9879L24.7922 33.9998L23.2186 30.9879V27.0875C22.6264 26.5825 22.2428 25.8395 22.2428 24.9999C22.2428 24.0754 22.7014 23.2615 23.4001 22.7615V15.3706L24.974 12.3578L26.5477 15.3706V22.7181C27.2772 23.2148 27.757 24.0504 27.7583 25.0005Z" fill="#0E479C"/>
</svg>
