<svg width="26" height="27" viewBox="0 0 26 27" fill="none" xmlns="http://www.w3.org/2000/svg">
<path d="M20.6666 12.0798C20.6666 12.632 21.1143 13.0798 21.6666 13.0798C22.2189 13.0798 22.6666 12.632 22.6666 12.0798H20.6666ZM3.33329 12.0798C3.33329 12.632 3.78101 13.0798 4.33329 13.0798C4.88558 13.0798 5.33329 12.632 5.33329 12.0798H3.33329ZM3.8078 12.7528L3.56526 11.7827L3.56525 11.7827L3.8078 12.7528ZM5.69231 12.2817L5.93485 13.2518L5.93491 13.2518L5.69231 12.2817ZM5.69231 19.4612L5.93491 18.491L5.93485 18.491L5.69231 19.4612ZM3.8078 18.99L3.56525 19.9602L3.56526 19.9602L3.8078 18.99ZM22.1922 12.7528L22.4347 11.7827L22.4347 11.7827L22.1922 12.7528ZM20.3076 12.2817L20.065 13.2518L20.065 13.2518L20.3076 12.2817ZM20.3076 19.4612L20.065 18.491L20.065 18.491L20.3076 19.4612ZM22.1922 18.99L22.4347 19.9602L22.4347 19.9601L22.1922 18.99ZM22.6666 12.0798C22.6666 6.741 18.3387 2.41309 13 2.41309V4.41309C17.2342 4.41309 20.6666 7.84557 20.6666 12.0798H22.6666ZM13 2.41309C7.6612 2.41309 3.33329 6.741 3.33329 12.0798H5.33329C5.33329 7.84557 8.76577 4.41309 13 4.41309V2.41309ZM3.16663 16.888V14.8548H1.16663V16.888H3.16663ZM3.16663 14.8548C3.16663 14.3194 3.53095 13.8528 4.05035 13.723L3.56525 11.7827C2.15558 12.1351 1.16663 13.4016 1.16663 14.8548H3.16663ZM4.05034 13.723L5.93485 13.2518L5.44977 11.3115L3.56526 11.7827L4.05034 13.723ZM5.93491 13.2518C5.71392 13.3071 5.49996 13.1399 5.49996 12.9123H7.49996C7.49996 11.8388 6.4912 11.0511 5.44971 11.3116L5.93491 13.2518ZM5.49996 12.9123V18.8305H7.49996V12.9123H5.49996ZM5.49996 18.8305C5.49996 18.603 5.71392 18.4358 5.93491 18.491L5.44971 20.4313C6.4912 20.6917 7.49996 19.904 7.49996 18.8305H5.49996ZM5.93485 18.491L4.05034 18.0199L3.56526 19.9602L5.44977 20.4313L5.93485 18.491ZM4.05035 18.0199C3.53095 17.89 3.16663 17.4234 3.16663 16.888H1.16663C1.16663 18.3412 2.15558 19.6077 3.56525 19.9602L4.05035 18.0199ZM24.8333 16.888V14.8548H22.8333V16.888H24.8333ZM24.8333 14.8548C24.8333 13.4017 23.8443 12.1351 22.4347 11.7827L21.9496 13.723C22.469 13.8528 22.8333 14.3194 22.8333 14.8548H24.8333ZM22.4347 11.7827L20.5501 11.3115L20.065 13.2518L21.9496 13.723L22.4347 11.7827ZM20.5502 11.3116C19.5086 11.0511 18.5 11.8389 18.5 12.9123H20.5C20.5 13.1398 20.286 13.3071 20.065 13.2518L20.5502 11.3116ZM18.5 12.9123V18.8305H20.5V12.9123H18.5ZM18.5 18.8305C18.5 19.904 19.5086 20.6917 20.5502 20.4313L20.065 18.491C20.286 18.4358 20.5 18.603 20.5 18.8305H18.5ZM20.5501 20.4313L22.4347 19.9602L21.9496 18.0199L20.065 18.491L20.5501 20.4313ZM22.4347 19.9601C23.8443 19.6077 24.8333 18.3412 24.8333 16.888H22.8333C22.8333 17.4234 22.469 17.89 21.9496 18.0199L22.4347 19.9601ZM20.6666 19.6631V20.2048H22.6666V19.6631H20.6666ZM20.6666 20.2048C20.6666 20.8491 20.1443 21.3714 19.5 21.3714V23.3714C21.2489 23.3714 22.6666 21.9537 22.6666 20.2048H20.6666ZM19.5 21.3714H15.7083V23.3714H19.5V21.3714ZM14.625 22.9964H11.375V24.9964H14.625V22.9964ZM11.375 22.9964C11.0298 22.9964 10.75 22.7166 10.75 22.3714H8.74996C8.74996 23.8211 9.9252 24.9964 11.375 24.9964V22.9964ZM10.75 22.3714C10.75 22.0263 11.0298 21.7464 11.375 21.7464V19.7464C9.9252 19.7464 8.74996 20.9217 8.74996 22.3714H10.75ZM11.375 21.7464H14.625V19.7464H11.375V21.7464ZM14.625 21.7464C14.9701 21.7464 15.25 22.0263 15.25 22.3714H17.25C17.25 20.9217 16.0747 19.7464 14.625 19.7464V21.7464ZM15.25 22.3714C15.25 22.7166 14.9701 22.9964 14.625 22.9964V24.9964C16.0747 24.9964 17.25 23.8211 17.25 22.3714H15.25Z" fill="#0E479C"/>
</svg>
