<svg width="32" height="33" viewBox="0 0 32 33" fill="none" xmlns="http://www.w3.org/2000/svg">
<path d="M0 16.1631C0 24.9996 7.16344 32.1631 16 32.1631C24.8366 32.1631 32 24.9996 32 16.1631C32 7.32653 24.8366 0.163086 16 0.163086C7.16344 0.163086 0 7.32653 0 16.1631Z" fill="#F00073"/>
<path d="M16 9.36304C18.2 9.36304 18.5 9.36304 19.4 9.36304C20.2 9.36304 20.6 9.56304 20.9 9.66304C21.3 9.86304 21.6 9.96304 21.9 10.263C22.2 10.563 22.4 10.863 22.5 11.263C22.6 11.563 22.7 11.963 22.8 12.763C22.8 13.663 22.8 13.863 22.8 16.163C22.8 18.463 22.8 18.663 22.8 19.563C22.8 20.363 22.6 20.763 22.5 21.063C22.3 21.463 22.2 21.763 21.9 22.063C21.6 22.363 21.3 22.563 20.9 22.663C20.6 22.763 20.2 22.863 19.4 22.963C18.5 22.963 18.3 22.963 16 22.963C13.7 22.963 13.5 22.963 12.6 22.963C11.8 22.963 11.4 22.763 11.1 22.663C10.7 22.463 10.4 22.363 10.1 22.063C9.79995 21.763 9.59995 21.463 9.49995 21.063C9.39995 20.763 9.29995 20.363 9.19995 19.563C9.19995 18.663 9.19995 18.463 9.19995 16.163C9.19995 13.863 9.19995 13.663 9.19995 12.763C9.19995 11.963 9.39995 11.563 9.49995 11.263C9.69995 10.863 9.79995 10.563 10.1 10.263C10.4 9.96304 10.7 9.76304 11.1 9.66304C11.4 9.56304 11.8 9.46304 12.6 9.36304C13.5 9.36304 13.8 9.36304 16 9.36304ZM16 7.86304C13.7 7.86304 13.5 7.86304 12.6 7.86304C11.7 7.86304 11.1 8.06304 10.6 8.26304C10.1 8.46304 9.59995 8.76304 9.09995 9.26304C8.59995 9.76304 8.39995 10.163 8.09995 10.763C7.89995 11.263 7.79995 11.863 7.69995 12.763C7.69995 13.663 7.69995 13.963 7.69995 16.163C7.69995 18.463 7.69995 18.663 7.69995 19.563C7.69995 20.463 7.89995 21.063 8.09995 21.563C8.29995 22.063 8.59995 22.563 9.09995 23.063C9.59995 23.563 9.99995 23.763 10.6 24.063C11.1 24.263 11.7 24.363 12.6 24.463C13.5 24.463 13.8 24.463 16 24.463C18.2 24.463 18.5 24.463 19.4 24.463C20.3 24.463 20.9 24.263 21.4 24.063C21.9 23.863 22.4 23.563 22.9 23.063C23.4 22.563 23.6 22.163 23.9 21.563C24.1 21.063 24.1999 20.463 24.2999 19.563C24.2999 18.663 24.2999 18.363 24.2999 16.163C24.2999 13.963 24.2999 13.663 24.2999 12.763C24.2999 11.863 24.1 11.263 23.9 10.763C23.7 10.263 23.4 9.76304 22.9 9.26304C22.4 8.76304 22 8.56304 21.4 8.26304C20.9 8.06304 20.3 7.96304 19.4 7.86304C18.5 7.86304 18.3 7.86304 16 7.86304Z" fill="white"/>
<path d="M16 11.863C13.6 11.863 11.7 13.763 11.7 16.163C11.7 18.563 13.6 20.463 16 20.463C18.4 20.463 20.3 18.563 20.3 16.163C20.3 13.763 18.4 11.863 16 11.863ZM16 18.963C14.5 18.963 13.2 17.763 13.2 16.163C13.2 14.663 14.4 13.363 16 13.363C17.5 13.363 18.8 14.563 18.8 16.163C18.8 17.663 17.5 18.963 16 18.963Z" fill="white"/>
<path d="M20.4 12.763C20.9522 12.763 21.4 12.3153 21.4 11.763C21.4 11.2108 20.9522 10.763 20.4 10.763C19.8477 10.763 19.4 11.2108 19.4 11.763C19.4 12.3153 19.8477 12.763 20.4 12.763Z" fill="white"/>
</svg>
