<svg width="32" height="33" viewBox="0 0 32 33" fill="none" xmlns="http://www.w3.org/2000/svg">
<path d="M0 16.1631C0 24.9996 7.16344 32.1631 16 32.1631C24.8366 32.1631 32 24.9996 32 16.1631C32 7.32653 24.8366 0.163086 16 0.163086C7.16344 0.163086 0 7.32653 0 16.1631Z" fill="#2867B2"/>
<path d="M11.6 24.1631H8.2V13.4631H11.6V24.1631ZM9.9 11.9631C8.8 11.9631 8 11.1631 8 10.0631C8 8.96309 8.9 8.16309 9.9 8.16309C11 8.16309 11.8 8.96309 11.8 10.0631C11.8 11.1631 11 11.9631 9.9 11.9631ZM24 24.1631H20.6V18.3631C20.6 16.6631 19.9 16.1631 18.9 16.1631C17.9 16.1631 16.9 16.9631 16.9 18.4631V24.1631H13.5V13.4631H16.7V14.9631C17 14.2631 18.2 13.1631 19.9 13.1631C21.8 13.1631 23.8 14.2631 23.8 17.5631V24.1631H24Z" fill="white"/>
</svg>
