<svg width="36" height="50" viewBox="0 0 36 50" fill="none" xmlns="http://www.w3.org/2000/svg">
<path d="M18.0001 26.1785C16.0105 26.1785 14.3918 27.7971 14.3918 29.7867C14.3918 31.2232 15.2358 32.466 16.4537 33.0461V38.5686H19.5465V33.046C20.7644 32.4658 21.6083 31.2231 21.6083 29.7866C21.6083 27.7971 19.9897 26.1785 18.0001 26.1785Z" fill="#0E479C"/>
<path d="M28.5671 17.9221V10.567C28.5671 4.74031 23.8268 0 18.0001 0C12.1734 0 7.43305 4.74031 7.43305 10.567V17.9221C3.058 21.1648 0.216553 26.3648 0.216553 32.2165C0.216553 42.0224 8.19418 50 18.0001 50C27.8059 50 35.7836 42.0224 35.7836 32.2165C35.7836 26.3648 32.9421 21.1648 28.5671 17.9221ZM10.5258 10.567C10.5258 6.44567 13.8787 3.09278 18.0001 3.09278C22.1214 3.09278 25.4743 6.44567 25.4743 10.567V16.0823C23.2007 15.0248 20.6683 14.433 18.0001 14.433C15.3318 14.433 12.7994 15.0248 10.5258 16.0824V10.567ZM18.0001 46.9072C9.89954 46.9072 3.30934 40.317 3.30934 32.2165C3.30934 24.116 9.89954 17.5258 18.0001 17.5258C26.1006 17.5258 32.6908 24.116 32.6908 32.2165C32.6908 40.317 26.1006 46.9072 18.0001 46.9072Z" fill="#0E479C"/>
</svg>
