<svg width="24" height="25" viewBox="0 0 24 25" fill="none" xmlns="http://www.w3.org/2000/svg">
<path d="M16.566 22.1621H16.594C17.122 22.1621 17.621 21.9541 17.999 21.5761L20.711 18.8641C20.8039 18.7713 20.8777 18.6611 20.928 18.5398C20.9783 18.4185 21.0042 18.2884 21.0042 18.1571C21.0042 18.0258 20.9783 17.8957 20.928 17.7744C20.8777 17.6531 20.8039 17.5429 20.711 17.4501L16.711 13.4501C16.6182 13.3571 16.508 13.2834 16.3867 13.2331C16.2654 13.1828 16.1353 13.1569 16.004 13.1569C15.8726 13.1569 15.7426 13.1828 15.6213 13.2331C15.5 13.2834 15.3898 13.3571 15.297 13.4501L13.703 15.0441C12.964 14.8241 11.585 14.3241 10.711 13.4501C9.83697 12.5761 9.33697 11.1971 9.11697 10.4581L10.711 8.86409C10.8039 8.7713 10.8777 8.66109 10.928 8.53978C10.9783 8.41846 11.0042 8.28842 11.0042 8.15709C11.0042 8.02575 10.9783 7.89571 10.928 7.77439C10.8777 7.65308 10.8039 7.54287 10.711 7.45009L6.71097 3.45009C6.5198 3.26964 6.26686 3.16912 6.00397 3.16912C5.74109 3.16912 5.48815 3.26964 5.29697 3.45009L2.58597 6.16209C2.20597 6.54209 1.99197 7.06409 1.99997 7.59709C2.02297 9.02109 2.39997 13.9671 6.29797 17.8651C10.196 21.7631 15.142 22.1391 16.566 22.1621ZM6.00497 5.57109L8.59097 8.15709L7.29797 9.45009C7.18031 9.56743 7.09387 9.71234 7.04654 9.87164C6.9992 10.0309 6.99248 10.1995 7.02697 10.3621C7.05097 10.4771 7.63797 13.2041 9.29797 14.8641C10.958 16.5241 13.685 17.1111 13.8 17.1351C13.9625 17.1698 14.1312 17.1631 14.2905 17.1158C14.4498 17.0684 14.5947 16.9819 14.712 16.8641L16.005 15.5711L18.591 18.1571L16.585 20.1621C15.337 20.1411 11.067 19.8061 7.71197 16.4501C4.34597 13.0841 4.01997 8.79909 3.99997 7.57609L6.00497 5.57109ZM19.999 11.1621H21.999C21.999 6.03209 18.126 2.16309 12.989 2.16309V4.16309C17.051 4.16309 19.999 7.10609 19.999 11.1621Z" fill="#0E479C"/>
<path d="M12.999 8.16309C15.102 8.16309 15.999 9.06009 15.999 11.1631H17.999C17.999 7.93809 16.224 6.16309 12.999 6.16309V8.16309Z" fill="#0E479C"/>
</svg>
