<svg width="32" height="33" viewBox="0 0 32 33" fill="none" xmlns="http://www.w3.org/2000/svg">
<path d="M0 16.1631C0 24.9996 7.16344 32.1631 16 32.1631C24.8366 32.1631 32 24.9996 32 16.1631C32 7.32653 24.8366 0.163086 16 0.163086C7.16344 0.163086 0 7.32653 0 16.1631Z" fill="#E60023"/>
<path d="M16 8.16309C11.6 8.16309 8 11.7631 8 16.1631C8 19.4631 10 22.2631 12.8 23.4631C12.8 22.8631 12.8 22.2631 12.9 21.6631C13.1 20.9631 13.9 17.2631 13.9 17.2631C13.9 17.2631 13.6 16.7631 13.6 15.9631C13.6 14.7631 14.3 13.8631 15.1 13.8631C15.8 13.8631 16.2 14.3631 16.2 15.0631C16.2 15.7631 15.7 16.8631 15.5 17.8631C15.3 18.6631 15.9 19.3631 16.8 19.3631C18.3 19.3631 19.3 17.4631 19.3 15.0631C19.3 13.2631 18.1 11.9631 16 11.9631C13.6 11.9631 12.1 13.7631 12.1 15.7631C12.1 16.4631 12.3 16.9631 12.6 17.3631C12.7 17.5631 12.8 17.5631 12.7 17.7631C12.7 17.8631 12.6 18.2631 12.5 18.3631C12.4 18.5631 12.3 18.6631 12.1 18.5631C11 18.0631 10.5 16.8631 10.5 15.4631C10.5 13.1631 12.4 10.4631 16.2 10.4631C19.3 10.4631 21.3 12.6631 21.3 15.0631C21.3 18.1631 19.6 20.5631 17 20.5631C16.1 20.5631 15.3 20.0631 15 19.5631C15 19.5631 14.5 21.3631 14.4 21.7631C14.2 22.3631 13.9 22.9631 13.6 23.4631C14.3 23.6631 15.1 23.7631 15.9 23.7631C20.3 23.7631 23.9 20.1631 23.9 15.7631C24 11.7631 20.4 8.16309 16 8.16309Z" fill="white"/>
</svg>
