<svg width="32" height="32" viewBox="0 0 32 32" fill="none" xmlns="http://www.w3.org/2000/svg">
<path fill-rule="evenodd" clip-rule="evenodd" d="M6.00039 4.8446C5.38675 4.8446 4.88928 5.33756 4.88928 5.94563C4.88928 6.5537 5.38675 7.04665 6.00039 7.04665H7.11194V25.9744C7.11194 26.3836 7.54656 26.6497 7.91595 26.4667L11.0595 24.9092C11.3723 24.7542 11.7405 24.7542 12.0533 24.9092L14.5102 26.1265C15.4485 26.5915 16.5532 26.5915 17.4915 26.1265L19.9484 24.9092C20.2612 24.7542 20.6294 24.7542 20.9422 24.9092L24.0857 26.4667C24.455 26.6497 24.8897 26.3836 24.8897 25.9744V7.04665H26.0004C26.6141 7.04665 27.1115 6.5537 27.1115 5.94563C27.1115 5.33756 26.6141 4.8446 26.0004 4.8446H24.8897H7.11194H6.00039ZM22.1124 7.04676C22.4191 7.04676 22.6679 7.29324 22.6679 7.59727V22.4918C22.6679 22.8641 22.2725 23.1063 21.9364 22.9398C20.998 22.4749 19.8934 22.4749 18.955 22.9398L16.4982 24.157C16.1854 24.312 15.8172 24.312 15.5044 24.157L13.0475 22.9398C12.1091 22.4749 11.0045 22.4749 10.0661 22.9398C9.73003 23.1063 9.3346 22.8641 9.3346 22.4918V7.59727C9.3346 7.29324 9.58333 7.04676 9.89015 7.04676H22.1124ZM11.5559 10.3497C11.5559 9.74165 12.0534 9.2487 12.6671 9.2487H14.8893C15.5029 9.2487 16.0004 9.74165 16.0004 10.3497C16.0004 10.9578 15.5029 11.4508 14.8893 11.4508H12.6671C12.0534 11.4508 11.5559 10.9578 11.5559 10.3497ZM19.3337 9.2487C18.7201 9.2487 18.2226 9.74165 18.2226 10.3497C18.2226 10.9578 18.7201 11.4508 19.3337 11.4508C19.9474 11.4508 20.4448 10.9578 20.4448 10.3497C20.4448 9.74165 19.9474 9.2487 19.3337 9.2487ZM12.6671 13.6528C12.0534 13.6528 11.5559 14.1457 11.5559 14.7538C11.5559 15.3619 12.0534 15.8548 12.6671 15.8548H14.8893C15.5029 15.8548 16.0004 15.3619 16.0004 14.7538C16.0004 14.1457 15.5029 13.6528 14.8893 13.6528H12.6671ZM19.3337 13.6528C18.7201 13.6528 18.2226 14.1457 18.2226 14.7538C18.2226 15.3619 18.7201 15.8548 19.3337 15.8548C19.9474 15.8548 20.4448 15.3619 20.4448 14.7538C20.4448 14.1457 19.9474 13.6528 19.3337 13.6528ZM12.6671 18.0569C12.0534 18.0569 11.5559 18.5498 11.5559 19.1579C11.5559 19.766 12.0534 20.2589 12.6671 20.2589H14.8893C15.5029 20.2589 16.0004 19.766 16.0004 19.1579C16.0004 18.5498 15.5029 18.0569 14.8893 18.0569H12.6671ZM19.3337 18.0569C18.7201 18.0569 18.2226 18.5498 18.2226 19.1579C18.2226 19.766 18.7201 20.2589 19.3337 20.2589C19.9474 20.2589 20.4448 19.766 20.4448 19.1579C20.4448 18.5498 19.9474 18.0569 19.3337 18.0569Z" fill="#0E479C"/>
</svg>
