<svg width="50" height="50" viewBox="0 0 50 50" fill="none" xmlns="http://www.w3.org/2000/svg">
<g clip-path="url(#clip0_101_283)">
<path d="M25 0C11.1934 0 0 11.1934 0 25C0 38.8066 11.1934 50 25 50C38.8066 50 50 38.8066 50 25C50 11.1934 38.8066 0 25 0ZM25 47.5C12.5934 47.5 2.5 37.4066 2.5 25C2.5 12.5934 12.5934 2.5 25 2.5C37.4066 2.5 47.5 12.5934 47.5 25C47.5 37.4066 37.4066 47.5 25 47.5Z" fill="#0E479C"/>
<path d="M24.9999 11.25C17.5724 11.25 11.5366 17.1434 11.275 24.5075L9.63413 22.8667C9.14575 22.3784 8.35493 22.3784 7.86665 22.8667C7.37827 23.3551 7.37827 24.1459 7.86665 24.6342L11.6166 28.3842C12.105 28.8726 12.8958 28.8726 13.3841 28.3842L17.1341 24.6342C17.6225 24.1458 17.6225 23.355 17.1341 22.8667C16.89 22.6217 16.57 22.5 16.2499 22.5C15.9299 22.5 15.6099 22.6217 15.3658 22.8658L13.8075 24.4241C14.115 18.4934 18.9941 13.75 24.9999 13.75C29.3124 13.75 33.0224 16.2167 34.9091 19.7875L36.7733 17.9233C34.3674 13.93 30.0025 11.25 24.9999 11.25Z" fill="#0E479C"/>
<path d="M42.1342 25.3658L38.3842 21.6158C37.8958 21.1274 37.105 21.1274 36.6167 21.6158L32.8667 25.3658C32.3785 25.8542 32.3785 26.645 32.8667 27.1333C33.3551 27.6216 34.1459 27.6216 34.6342 27.1333L36.1925 25.575C35.885 31.5066 31.0059 36.25 25 36.25C20.6875 36.25 16.9776 33.7833 15.0908 30.2125L13.2267 32.0766C15.6325 36.07 19.9975 38.75 25 38.75C32.4276 38.75 38.4634 32.8566 38.725 25.4925L40.3659 27.1333C40.61 27.3783 40.93 27.5 41.25 27.5C41.5701 27.5 41.8901 27.3783 42.1342 27.1342C42.6217 26.6458 42.6217 25.8542 42.1342 25.3658Z" fill="#0E479C"/>
</g>
<defs>
<clipPath id="clip0_101_283">
<rect width="50" height="50" fill="white"/>
</clipPath>
</defs>
</svg>
