<svg width="32" height="33" viewBox="0 0 32 33" fill="none" xmlns="http://www.w3.org/2000/svg">
<path d="M0 16.1631C0 24.9996 7.16344 32.1631 16 32.1631C24.8366 32.1631 32 24.9996 32 16.1631C32 7.32653 24.8366 0.163086 16 0.163086C7.16344 0.163086 0 7.32653 0 16.1631Z" fill="#0088CC"/>
<path d="M8.09992 15.8714C12.3949 14.0001 15.2589 12.7665 16.6919 12.1705C20.7834 10.4687 21.6335 10.173 22.1877 10.1632C22.3095 10.1611 22.582 10.1913 22.7586 10.3346C22.9076 10.4555 22.9486 10.6189 22.9683 10.7336C22.9879 10.8482 23.0123 11.1094 22.9929 11.3135C22.7712 13.6432 21.8118 19.2966 21.3237 21.9058C21.1172 23.0099 20.7105 23.38 20.3168 23.4163C19.4613 23.495 18.8116 22.8509 17.9829 22.3077C16.6862 21.4577 15.9537 20.9285 14.695 20.0991C13.2404 19.1405 14.1834 18.6137 15.0124 17.7527C15.2293 17.5273 18.999 14.0985 19.0719 13.7875C19.0811 13.7486 19.0895 13.6036 19.0034 13.527C18.9172 13.4505 18.7901 13.4766 18.6983 13.4975C18.5683 13.527 16.4968 14.8962 12.4839 17.605C11.8959 18.0087 11.3633 18.2055 10.8862 18.1952C10.3601 18.1838 9.34822 17.8977 8.59598 17.6532C7.67333 17.3533 6.94002 17.1947 7.00388 16.6854C7.03714 16.4201 7.40248 16.1487 8.09992 15.8714Z" fill="white"/>
</svg>
