<svg width="22" height="16" viewBox="0 0 22 16" fill="none" xmlns="http://www.w3.org/2000/svg">
<path d="M21.2331 5.68972C21.6567 5.68972 22 5.34636 22 4.92286V1.16872C22 0.745176 21.6566 0.401855 21.2331 0.401855C20.4925 0.401855 1.15268 0.401855 0.766906 0.401855C0.343363 0.401813 0 0.745176 0 1.16872V14.8315C0 15.2551 0.343363 15.5984 0.766863 15.5984C1.14473 15.5984 20.4799 15.5984 21.2331 15.5984C21.6566 15.5984 22 15.255 22 14.8315V11.0774C22 10.6539 21.6566 10.3105 21.2331 10.3105C19.9592 10.3105 18.9228 9.27413 18.9228 8.00019C18.9228 6.72617 19.9592 5.68972 21.2331 5.68972ZM8.85375 14.0647H1.53377V1.93562H8.8538V14.0647H8.85375ZM20.4662 11.7674V14.0647H10.3875V1.93562H20.4663V4.23286C18.7127 4.5892 17.389 6.143 17.389 8.00015C17.389 9.8573 18.7127 11.4111 20.4662 11.7674Z" fill="#363232"/>
</svg>
