<svg width="32" height="33" viewBox="0 0 32 33" fill="none" xmlns="http://www.w3.org/2000/svg">
<path d="M0 16.1631C0 24.9996 7.16344 32.1631 16 32.1631C24.8366 32.1631 32 24.9996 32 16.1631C32 7.32653 24.8366 0.163086 16 0.163086C7.16344 0.163086 0 7.32653 0 16.1631Z" fill="#1DA1F2"/>
<path d="M24 11.1631C23.4 11.4631 22.8 11.5631 22.1 11.6631C22.8 11.2631 23.3 10.6631 23.5 9.86309C22.9 10.2631 22.2 10.4631 21.4 10.6631C20.8 10.0631 19.9 9.66309 19 9.66309C16.9 9.66309 15.3 11.6631 15.8 13.6631C13.1 13.5631 10.7 12.2631 9 10.2631C8.1 11.7631 8.6 13.6631 10 14.6631C9.5 14.6631 9 14.4631 8.5 14.2631C8.5 15.7631 9.6 17.1631 11.1 17.5631C10.6 17.6631 10.1 17.7631 9.6 17.6631C10 18.9631 11.2 19.9631 12.7 19.9631C11.5 20.8631 9.7 21.3631 8 21.1631C9.5 22.0631 11.2 22.6631 13 22.6631C19.1 22.6631 22.5 17.5631 22.3 12.8631C23 12.4631 23.6 11.8631 24 11.1631Z" fill="white"/>
</svg>
