<svg width="18" height="18" viewBox="0 0 18 18" fill="none" xmlns="http://www.w3.org/2000/svg">
<path d="M14.0001 0.666672C13.5682 0.671178 13.1424 0.769675 12.7525 0.955316C12.3625 1.14096 12.0176 1.40929 11.7417 1.74167C11.3334 2.15 11.1334 2.33334 10.6584 2.33334C10.1834 2.33334 9.99175 2.15 9.58342 1.74167C9.31155 1.40578 8.96806 1.13489 8.57805 0.948807C8.18804 0.762725 7.76137 0.666153 7.32925 0.666153C6.89712 0.666153 6.47046 0.762725 6.08045 0.948807C5.69044 1.13489 5.34695 1.40578 5.07508 1.74167C4.66675 2.15 4.46675 2.33334 4.00008 2.33334C3.53341 2.33334 3.33341 2.15 2.92508 1.74167C2.64963 1.40886 2.30482 1.14023 1.91474 0.954546C1.52467 0.768864 1.09874 0.670617 0.666748 0.666672V2.33334C1.13341 2.33334 1.33341 2.51667 1.74175 2.92501C2.0172 3.25782 2.36201 3.52645 2.75209 3.71213C3.14216 3.89781 3.56809 3.99606 4.00008 4.00001C4.43067 3.99485 4.85497 3.89602 5.24351 3.71039C5.63206 3.52475 5.97553 3.25675 6.25008 2.92501C6.65841 2.51667 6.85842 2.33334 7.33342 2.33334C7.80841 2.33334 8.00008 2.51667 8.40841 2.92501C8.68021 3.26239 9.02415 3.53459 9.41496 3.7216C9.80576 3.90861 10.2335 4.00568 10.6667 4.00568C11.1 4.00568 11.5277 3.90861 11.9185 3.7216C12.3093 3.53459 12.6533 3.26239 12.9251 2.92501C13.3334 2.51667 13.5334 2.33334 14.0084 2.33334C14.4834 2.33334 14.6751 2.51667 15.0917 2.92501C15.3658 3.25526 15.708 3.52233 16.0949 3.70789C16.4818 3.89345 16.9043 3.9931 17.3334 4.00001V2.33334C16.8667 2.33334 16.6667 2.15 16.2501 1.74167C15.9752 1.41036 15.6316 1.14266 15.2431 0.957056C14.8547 0.771457 14.4306 0.672382 14.0001 0.666672Z" fill="#4D4D4D"/>
<path d="M14.0001 4.83333C13.5682 4.83783 13.1424 4.93633 12.7525 5.12197C12.3625 5.30761 12.0176 5.57595 11.7417 5.90833C11.3334 6.31666 11.1334 6.49999 10.6584 6.49999C10.1834 6.49999 9.99175 6.31666 9.58342 5.90833C9.31155 5.57244 8.96806 5.30155 8.57805 5.11546C8.18804 4.92938 7.76137 4.83281 7.32925 4.83281C6.89712 4.83281 6.47046 4.92938 6.08045 5.11546C5.69044 5.30155 5.34695 5.57244 5.07508 5.90833C4.66675 6.31666 4.46675 6.49999 4.00008 6.49999C3.53341 6.49999 3.33341 6.31666 2.92508 5.90833C2.64963 5.57552 2.30482 5.30688 1.91474 5.1212C1.52467 4.93552 1.09874 4.83727 0.666748 4.83333V6.49999C1.13341 6.49999 1.33341 6.68333 1.74175 7.09166C2.0172 7.42447 2.36201 7.69311 2.75209 7.87879C3.14216 8.06447 3.56809 8.16272 4.00008 8.16666C4.43067 8.16151 4.85497 8.06268 5.24351 7.87704C5.63206 7.6914 5.97553 7.4234 6.25008 7.09166C6.65841 6.68333 6.85842 6.49999 7.33342 6.49999C7.80841 6.49999 8.00008 6.68333 8.40841 7.09166C8.68021 7.42905 9.02415 7.70124 9.41496 7.88826C9.80576 8.07527 10.2335 8.17234 10.6667 8.17234C11.1 8.17234 11.5277 8.07527 11.9185 7.88826C12.3093 7.70124 12.6533 7.42905 12.9251 7.09166C13.3334 6.68333 13.5334 6.49999 14.0084 6.49999C14.4834 6.49999 14.6751 6.68333 15.0917 7.09166C15.3658 7.42192 15.708 7.68899 16.0949 7.87454C16.4818 8.0601 16.9043 8.15975 17.3334 8.16666V6.49999C16.8667 6.49999 16.6667 6.31666 16.2501 5.90833C15.9752 5.57701 15.6316 5.30931 15.2431 5.12371C14.8547 4.93811 14.4306 4.83904 14.0001 4.83333Z" fill="#4D4D4D"/>
<path d="M14.0001 9.83333C13.5682 9.83783 13.1424 9.93633 12.7525 10.122C12.3625 10.3076 12.0176 10.5759 11.7417 10.9083C11.3334 11.3167 11.1334 11.5 10.6584 11.5C10.1834 11.5 9.99175 11.3167 9.58342 10.9083C9.31155 10.5724 8.96806 10.3015 8.57805 10.1155C8.18804 9.92938 7.76137 9.83281 7.32925 9.83281C6.89712 9.83281 6.47046 9.92938 6.08045 10.1155C5.69044 10.3015 5.34695 10.5724 5.07508 10.9083C4.66675 11.3167 4.46675 11.5 4.00008 11.5C3.53341 11.5 3.33341 11.3167 2.92508 10.9083C2.64963 10.5755 2.30482 10.3069 1.91474 10.1212C1.52467 9.93552 1.09874 9.83727 0.666748 9.83333V11.5C1.13341 11.5 1.33341 11.6833 1.74175 12.0917C2.0172 12.4245 2.36201 12.6931 2.75209 12.8788C3.14216 13.0645 3.56809 13.1627 4.00008 13.1667C4.43067 13.1615 4.85497 13.0627 5.24351 12.877C5.63206 12.6914 5.97553 12.4234 6.25008 12.0917C6.65841 11.6833 6.85841 11.5 7.32508 11.5C7.79175 11.5 7.99175 11.6833 8.40008 12.0917C8.67188 12.429 9.01582 12.7012 9.40662 12.8883C9.79743 13.0753 10.2252 13.1723 10.6584 13.1723C11.0917 13.1723 11.5194 13.0753 11.9102 12.8883C12.301 12.7012 12.645 12.429 12.9167 12.0917C13.3251 11.6833 13.5251 11.5 14.0001 11.5C14.4751 11.5 14.6667 11.6833 15.0834 12.0917C15.3583 12.423 15.7019 12.6907 16.0903 12.8763C16.4788 13.0619 16.9029 13.161 17.3334 13.1667V11.5C16.8667 11.5 16.6667 11.3167 16.2501 10.9083C15.9752 10.577 15.6316 10.3093 15.2431 10.1237C14.8547 9.93811 14.4306 9.83904 14.0001 9.83333Z" fill="#4D4D4D"/>
<path d="M14.0001 14C13.5682 14.0045 13.1424 14.103 12.7525 14.2886C12.3625 14.4743 12.0176 14.7426 11.7417 15.075C11.3334 15.4833 11.1334 15.6667 10.6584 15.6667C10.1834 15.6667 9.99175 15.4833 9.58342 15.075C9.31155 14.7391 8.96806 14.4682 8.57805 14.2821C8.18804 14.0961 7.76137 13.9995 7.32925 13.9995C6.89712 13.9995 6.47046 14.0961 6.08045 14.2821C5.69044 14.4682 5.34695 14.7391 5.07508 15.075C4.66675 15.4833 4.46675 15.6667 4.00008 15.6667C3.53341 15.6667 3.33341 15.4833 2.92508 15.075C2.64963 14.7422 2.30482 14.4736 1.91474 14.2879C1.52467 14.1022 1.09874 14.0039 0.666748 14V15.6667C1.13341 15.6667 1.33341 15.85 1.74175 16.2583C2.0172 16.5911 2.36201 16.8598 2.75209 17.0455C3.14216 17.2311 3.56809 17.3294 4.00008 17.3333C4.43067 17.3282 4.85497 17.2294 5.24351 17.0437C5.63206 16.8581 5.97553 16.5901 6.25008 16.2583C6.65841 15.85 6.85841 15.6667 7.32508 15.6667C7.79175 15.6667 7.99175 15.85 8.40008 16.2583C8.67188 16.5957 9.01582 16.8679 9.40662 17.0549C9.79743 17.2419 10.2252 17.339 10.6584 17.339C11.0917 17.339 11.5194 17.2419 11.9102 17.0549C12.301 16.8679 12.645 16.5957 12.9167 16.2583C13.3251 15.85 13.5251 15.6667 14.0001 15.6667C14.4751 15.6667 14.6667 15.85 15.0834 16.2583C15.3583 16.5896 15.7019 16.8573 16.0903 17.0429C16.4788 17.2285 16.9029 17.3276 17.3334 17.3333V15.6667C16.8667 15.6667 16.6667 15.4833 16.2501 15.075C15.9752 14.7437 15.6316 14.476 15.2431 14.2904C14.8547 14.1048 14.4306 14.0057 14.0001 14Z" fill="#4D4D4D"/>
</svg>
