<svg width="26" height="28" viewBox="0 0 26 28" fill="none" xmlns="http://www.w3.org/2000/svg">
<path d="M12.689 4.95746C12.689 3.41066 12.9998 2.15764 12.9998 2.15764C12.9998 2.15764 13.3106 3.41066 13.3106 4.95746C13.3106 5.28527 13.2945 5.59516 13.2721 5.88715C13.6984 5.39633 14.4758 4.33318 14.4758 3.09091C14.4758 1.38379 12.9998 0 12.9998 0C12.9998 0 11.5247 1.38379 11.5247 3.09091C11.5247 4.33229 12.3021 5.39543 12.7266 5.88715C12.7051 5.59516 12.689 5.28527 12.689 4.95746Z" fill="white"/>
<path d="M13.3116 23.0426C13.3116 24.5903 13.0008 25.8433 13.0008 25.8433C13.0008 25.8433 12.69 24.5903 12.69 23.0426C12.69 22.7156 12.7052 22.4049 12.7276 22.1138C12.3022 22.6037 11.5256 23.6668 11.5256 24.9091C11.5256 26.6162 13.0008 28 13.0008 28C13.0008 28 14.4768 26.6162 14.4768 24.9091C14.4768 23.6677 13.6985 22.6055 13.2731 22.1138C13.2955 22.4049 13.3116 22.7148 13.3116 23.0426Z" fill="white"/>
<path d="M8.79382 7.06043C8.68992 6.90727 8.58334 6.74247 8.47855 6.56155C7.98862 5.71336 7.76292 4.92787 7.76292 4.92787C7.76292 4.92787 8.32987 5.51722 8.82069 6.36451C8.92369 6.54453 9.01325 6.71919 9.09386 6.88667C9.17178 6.48184 9.26135 5.65246 8.86905 4.97176C8.32718 4.0349 7.07953 3.74292 7.07953 3.74292C7.07953 3.74292 6.70783 4.96997 7.24791 5.90593C7.64111 6.58842 8.4051 6.92519 8.79382 7.06043Z" fill="white"/>
<path d="M17.2067 20.9404C17.3115 21.0936 17.4163 21.2575 17.522 21.4402C18.0119 22.2875 18.2394 23.073 18.2394 23.073C18.2394 23.073 17.6689 22.4845 17.1808 21.6364C17.076 21.4563 16.9864 21.2817 16.9058 21.1133C16.8288 21.519 16.7392 22.3484 17.1333 23.0282C17.6743 23.9651 18.9228 24.257 18.9228 24.257C18.9228 24.257 19.2936 23.03 18.7517 22.094C18.3577 21.4115 17.5954 21.0739 17.2067 20.9404Z" fill="white"/>
<path d="M4.88617 13.8271C4.57448 13.5576 3.90005 13.0658 3.11456 13.0649C2.03261 13.0649 1.15576 13.9991 1.15576 13.9991C1.15576 13.9991 2.03261 14.9342 3.11367 14.9342C3.90095 14.9342 4.57448 14.4425 4.88617 14.1729C4.70077 14.1863 4.50462 14.1953 4.29683 14.1953C3.31698 14.1953 2.52343 13.9982 2.52343 13.9982C2.52343 13.9982 3.31788 13.8012 4.29683 13.8012C4.50552 13.803 4.70077 13.8128 4.88617 13.8271Z" fill="white"/>
<path d="M21.1128 14.1729C21.4245 14.4425 22.098 14.9342 22.8835 14.9342C23.9664 14.9342 24.8432 14 24.8432 14C24.8432 14 23.9664 13.0659 22.8835 13.0659C22.098 13.0659 21.4245 13.5576 21.1128 13.8272C21.2982 13.8128 21.4943 13.8048 21.7003 13.8048C22.682 13.8048 23.4755 14.0018 23.4755 14.0018C23.4755 14.0018 22.6811 14.2007 21.7003 14.1989C21.4943 14.1971 21.2982 14.1872 21.1128 14.1729Z" fill="white"/>
<path d="M8.8189 21.6337C8.32987 22.481 7.76113 23.0703 7.76113 23.0703C7.76113 23.0703 7.98773 22.2848 8.47676 21.4357C8.58245 21.2566 8.68903 21.0909 8.79382 20.9377C8.40421 21.0721 7.64111 21.4098 7.24703 22.0913C6.70605 23.0282 7.07685 24.2544 7.07685 24.2544C7.07685 24.2544 8.32539 23.9624 8.86637 23.0273C9.25956 22.3457 9.17 21.5154 9.09297 21.1106C9.01326 21.279 8.92369 21.4536 8.8189 21.6337Z" fill="white"/>
<path d="M17.1809 6.36542C17.6708 5.51723 18.2395 4.927 18.2395 4.927C18.2395 4.927 18.0138 5.71428 17.5221 6.56247C17.4209 6.74249 17.3125 6.90729 17.2068 7.06045C17.5973 6.9261 18.3596 6.58844 18.7518 5.90774C19.2937 4.97178 18.9229 3.74384 18.9229 3.74384C18.9229 3.74384 17.6735 4.03672 17.1334 4.97268C16.7402 5.65427 16.8289 6.48275 16.9077 6.88759C16.9883 6.71921 17.0779 6.54455 17.1809 6.36542Z" fill="white"/>
<path d="M4.28875 7.26736C2.81182 6.4138 0.874512 6.99956 0.874512 6.99956C0.874512 6.99956 1.33577 8.97001 2.81361 9.82357C3.89019 10.4443 5.19874 10.3027 5.83645 10.18C5.57223 10.0529 5.29547 9.91134 5.01244 9.74833C3.67254 8.97448 2.74285 8.07883 2.74285 8.07883C2.74285 8.07883 3.98423 8.43619 5.32324 9.21004C5.60626 9.37395 5.8669 9.54323 6.10873 9.70803C5.89735 9.09271 5.36623 7.88805 4.28875 7.26736Z" fill="white"/>
<path d="M23.1862 18.1774C22.1087 17.5567 20.8019 17.6973 20.1633 17.8209C20.4257 17.949 20.7043 18.0887 20.9855 18.2526C22.3254 19.0255 23.256 19.9212 23.256 19.9212C23.256 19.9212 22.0155 19.5647 20.6756 18.7909C20.3926 18.627 20.132 18.4586 19.8901 18.2929C20.1015 18.9082 20.6353 20.1111 21.711 20.7327C23.1888 21.5853 25.1244 21.0005 25.1244 21.0005C25.1244 21.0005 24.6622 19.03 23.1862 18.1774Z" fill="white"/>
<path d="M2.74285 19.9212C2.74285 19.9212 3.67344 19.0238 5.01244 18.2508C5.29637 18.0878 5.57223 17.9472 5.83734 17.8191C5.19963 17.6964 3.88929 17.5549 2.8145 18.1765C1.33577 19.0291 0.874512 20.9987 0.874512 20.9987C0.874512 20.9987 2.81092 21.5835 4.28875 20.7309C5.36533 20.1102 5.89735 18.9046 6.10962 18.2911C5.8669 18.4568 5.60716 18.6243 5.32503 18.7891C3.98423 19.5629 2.74285 19.9212 2.74285 19.9212Z" fill="white"/>
<path d="M23.256 8.07792C23.256 8.07792 22.3254 8.97358 20.9873 9.74742C20.7043 9.91133 20.4275 10.0528 20.1633 10.1791C20.8019 10.3027 22.1105 10.4433 23.1844 9.82266C24.664 8.9682 25.1244 6.99955 25.1244 6.99955C25.1244 6.99955 23.1897 6.41469 21.711 7.26735C20.6335 7.88894 20.1033 9.0927 19.8901 9.70622C20.132 9.54232 20.3926 9.37304 20.6756 9.21003C22.0155 8.43618 23.256 8.07792 23.256 8.07792Z" fill="white"/>
<path d="M13 13.339C13 13.339 9.31082 9.99286 6.95435 10.2857C11.4837 12.6637 13 21.442 13 21.442C13 21.442 13.4452 13.5549 19.0457 10.2857C16.0524 9.73849 13 13.339 13 13.339Z" fill="white"/>
<path d="M13 11.7456C13.8374 11.7456 14.5163 11.0668 14.5163 10.2293C14.5163 9.39184 13.8374 8.71295 13 8.71295C12.1625 8.71295 11.4836 9.39184 11.4836 10.2293C11.4836 11.0668 12.1625 11.7456 13 11.7456Z" fill="white"/>
</svg>
