<svg width="44" height="50" viewBox="0 0 44 50" fill="none" xmlns="http://www.w3.org/2000/svg">
<path d="M21.445 8.8526C21.445 6.09046 22 3.85292 22 3.85292C22 3.85292 22.555 6.09046 22.555 8.8526C22.555 9.43798 22.5262 9.99136 22.4862 10.5128C23.2476 9.6363 24.6358 7.73783 24.6358 5.51948C24.6358 2.47105 22 0 22 0C22 0 19.3658 2.47105 19.3658 5.51948C19.3658 7.73623 20.7541 9.6347 21.5122 10.5128C21.4738 9.99136 21.445 9.43798 21.445 8.8526Z" fill="#0E479C"/>
<path d="M22.5566 41.1475C22.5566 43.9112 22.0016 46.1487 22.0016 46.1487C22.0016 46.1487 21.4466 43.9112 21.4466 41.1475C21.4466 40.5637 21.4738 40.0087 21.5138 39.4889C20.7541 40.3638 19.3674 42.2622 19.3674 44.4806C19.3674 47.529 22.0016 50.0001 22.0016 50.0001C22.0016 50.0001 24.6374 47.529 24.6374 44.4806C24.6374 42.2638 23.2475 40.367 22.4878 39.4889C22.5278 40.0087 22.5566 40.5621 22.5566 41.1475Z" fill="#0E479C"/>
<path d="M14.4893 12.608C14.3038 12.3345 14.1135 12.0402 13.9264 11.7171C13.0515 10.2025 12.6484 8.79983 12.6484 8.79983C12.6484 8.79983 13.6609 9.85222 14.5373 11.3652C14.7213 11.6867 14.8812 11.9986 15.0251 12.2977C15.1643 11.5748 15.3242 10.0937 14.6237 8.8782C13.6561 7.20524 11.4281 6.68384 11.4281 6.68384C11.4281 6.68384 10.7644 8.875 11.7288 10.5464C12.4309 11.7651 13.7952 12.3665 14.4893 12.608Z" fill="#0E479C"/>
<path d="M29.5124 37.3937C29.6995 37.6672 29.8866 37.9599 30.0754 38.2861C30.9502 39.7992 31.3565 41.2018 31.3565 41.2018C31.3565 41.2018 30.3377 40.151 29.466 38.6364C29.2789 38.3149 29.1189 38.003 28.975 37.7024C28.8374 38.4269 28.6775 39.9079 29.3812 41.1218C30.3473 42.7948 32.5768 43.3162 32.5768 43.3162C32.5768 43.3162 33.2389 41.125 32.2713 39.4537C31.5676 38.235 30.2065 37.632 29.5124 37.3937Z" fill="#0E479C"/>
<path d="M7.51117 24.6913C6.95459 24.2099 5.75025 23.3318 4.34759 23.3302C2.41553 23.3302 0.849731 24.9984 0.849731 24.9984C0.849731 24.9984 2.41553 26.6681 4.34599 26.6681C5.75185 26.6681 6.95459 25.7901 7.51117 25.3086C7.1801 25.3326 6.82984 25.3486 6.45878 25.3486C4.70905 25.3486 3.29199 24.9968 3.29199 24.9968C3.29199 24.9968 4.71065 24.6449 6.45878 24.6449C6.83143 24.6481 7.1801 24.6657 7.51117 24.6913Z" fill="#0E479C"/>
<path d="M36.4873 25.3086C37.0439 25.79 38.2466 26.6681 39.6493 26.6681C41.5829 26.6681 43.1487 24.9999 43.1487 24.9999C43.1487 24.9999 41.5829 23.3318 39.6493 23.3318C38.2466 23.3318 37.0439 24.2098 36.4873 24.6913C36.8184 24.6657 37.1686 24.6513 37.5365 24.6513C39.2894 24.6513 40.7065 25.0031 40.7065 25.0031C40.7065 25.0031 39.2878 25.3582 37.5365 25.355C37.1686 25.3518 36.8184 25.3342 36.4873 25.3086Z" fill="#0E479C"/>
<path d="M14.5341 38.6315C13.6608 40.1445 12.6452 41.1969 12.6452 41.1969C12.6452 41.1969 13.0499 39.7943 13.9231 38.2781C14.1118 37.9582 14.3022 37.6623 14.4893 37.3888C13.7936 37.6287 12.4309 38.2317 11.7272 39.4488C10.7611 41.1218 11.4233 43.3113 11.4233 43.3113C11.4233 43.3113 13.6528 42.7899 14.6189 41.1202C15.321 39.903 15.161 38.4204 15.0235 37.6975C14.8812 37.9982 14.7212 38.31 14.5341 38.6315Z" fill="#0E479C"/>
<path d="M29.466 11.3668C30.3408 9.85221 31.3565 8.79821 31.3565 8.79821C31.3565 8.79821 30.9534 10.2041 30.0753 11.7187C29.8946 12.0402 29.7011 12.3345 29.5124 12.608C30.2097 12.368 31.5708 11.7651 32.2713 10.5495C33.2389 8.87818 32.5768 6.68542 32.5768 6.68542C32.5768 6.68542 30.3456 7.20842 29.3812 8.87978C28.6791 10.0969 28.8374 11.5763 28.9782 12.2993C29.1221 11.9986 29.282 11.6867 29.466 11.3668Z" fill="#0E479C"/>
<path d="M6.44439 12.9774C3.80701 11.4532 0.347534 12.4992 0.347534 12.4992C0.347534 12.4992 1.17122 16.0179 3.8102 17.5421C5.73267 18.6505 8.06937 18.3978 9.20813 18.1787C8.73631 17.9515 8.2421 17.6988 7.7367 17.4077C5.34402 16.0259 3.68385 14.4265 3.68385 14.4265C3.68385 14.4265 5.9006 15.0646 8.29168 16.4465C8.79709 16.7392 9.26251 17.0415 9.69435 17.3358C9.31689 16.237 8.36845 14.0858 6.44439 12.9774Z" fill="#0E479C"/>
<path d="M40.1898 32.4595C38.2658 31.3511 35.9323 31.6022 34.7919 31.8229C35.2605 32.0516 35.7579 32.3011 36.2601 32.5938C38.6528 33.9741 40.3146 35.5735 40.3146 35.5735C40.3146 35.5735 38.0994 34.9369 35.7067 33.5551C35.2013 33.2624 34.7359 32.9617 34.3041 32.6658C34.6815 33.7646 35.6348 35.9126 37.5556 37.0225C40.1946 38.5451 43.6509 37.5008 43.6509 37.5008C43.6509 37.5008 42.8256 33.9821 40.1898 32.4595Z" fill="#0E479C"/>
<path d="M3.68385 35.5736C3.68385 35.5736 5.34561 33.971 7.7367 32.5907C8.2437 32.2996 8.73631 32.0485 9.20973 31.8198C8.07097 31.6007 5.73107 31.348 3.8118 32.458C1.17122 33.9806 0.347534 37.4976 0.347534 37.4976C0.347534 37.4976 3.80541 38.542 6.44439 37.0194C8.36685 35.911 9.31689 33.7583 9.69594 32.6627C9.26251 32.9586 8.79869 33.2577 8.29488 33.5519C5.9006 34.9338 3.68385 35.5736 3.68385 35.5736Z" fill="#0E479C"/>
<path d="M40.3146 14.4248C40.3146 14.4248 38.6528 16.0242 36.2633 17.4061C35.7579 17.6988 35.2637 17.9515 34.7919 18.177C35.9323 18.3977 38.269 18.6488 40.1866 17.5404C42.8288 16.0146 43.6509 12.4992 43.6509 12.4992C43.6509 12.4992 40.1962 11.4548 37.5556 12.9774C35.6316 14.0874 34.6847 16.2369 34.3041 17.3325C34.7359 17.0398 35.2013 16.7375 35.7067 16.4464C38.0994 15.0646 40.3146 14.4248 40.3146 14.4248Z" fill="#0E479C"/>
<path d="M22.0001 23.8196C22.0001 23.8196 15.4122 17.8443 11.2042 18.3673C19.2923 22.6137 22.0001 38.2893 22.0001 38.2893C22.0001 38.2893 22.795 24.2051 32.7959 18.3673C27.4508 17.3901 22.0001 23.8196 22.0001 23.8196Z" fill="#0E479C"/>
<path d="M22 20.9744C23.4955 20.9744 24.7078 19.7621 24.7078 18.2666C24.7078 16.7711 23.4955 15.5588 22 15.5588C20.5045 15.5588 19.2922 16.7711 19.2922 18.2666C19.2922 19.7621 20.5045 20.9744 22 20.9744Z" fill="#0E479C"/>
</svg>
