<svg width="64" height="65" viewBox="0 0 64 65" fill="none" xmlns="http://www.w3.org/2000/svg">
<g filter="url(#filter0_d_101_808)">
<path d="M12 28.1631C12 39.2088 20.9543 48.1631 32 48.1631C43.0457 48.1631 52 39.2088 52 28.1631C52 17.1174 43.0457 8.16309 32 8.16309C20.9543 8.16309 12 17.1174 12 28.1631Z" fill="#25D366"/>
</g>
<path fill-rule="evenodd" clip-rule="evenodd" d="M39 21.0381C37.125 19.1631 34.625 18.1631 32 18.1631C26.5 18.1631 22 22.6631 22 28.1631C22 29.9131 22.5 31.6631 23.375 33.1631L22 38.1631L27.25 36.7881C28.75 37.5381 30.375 38.0381 32 38.0381C37.5 38.0381 42 33.5381 42 28.0381C42 25.4131 40.875 22.9131 39 21.0381ZM32 36.4131C30.5 36.4131 29 36.0381 27.75 35.2881L27.5 35.1631L24.375 36.0381L25.25 33.0381L25 32.6631C24.125 31.2881 23.75 29.7881 23.75 28.2881C23.75 23.7881 27.5 20.0381 32 20.0381C34.25 20.0381 36.25 20.9131 37.875 22.4131C39.5 24.0381 40.25 26.0381 40.25 28.2881C40.25 32.6631 36.625 36.4131 32 36.4131ZM36.5 30.1631C36.25 30.0381 35 29.4131 34.75 29.4131C34.5 29.2881 34.375 29.2881 34.25 29.5381C34.125 29.7881 33.625 30.2881 33.5 30.5381C33.375 30.6631 33.25 30.6631 33 30.6631C32.75 30.5381 32 30.2881 31 29.4131C30.25 28.7881 29.75 27.9131 29.625 27.6631C29.5 27.4131 29.625 27.2881 29.75 27.1631C29.875 27.0381 30 26.9131 30.125 26.7881C30.25 26.6631 30.25 26.5381 30.375 26.4131C30.5 26.2881 30.375 26.1631 30.375 26.0381C30.375 25.9131 29.875 24.6631 29.625 24.1631C29.5 23.7881 29.25 23.7881 29.125 23.7881C29 23.7881 28.875 23.7881 28.625 23.7881C28.5 23.7881 28.25 23.7881 28 24.0381C27.75 24.2881 27.125 24.9131 27.125 26.1631C27.125 27.4131 28 28.5381 28.125 28.7881C28.25 28.9131 29.875 31.5381 32.375 32.5381C34.5 33.4131 34.875 33.1631 35.375 33.1631C35.875 33.1631 36.875 32.5381 37 32.0381C37.25 31.4131 37.25 30.9131 37.125 30.9131C37 30.2881 36.75 30.2881 36.5 30.1631Z" fill="white"/>
<defs>
<filter id="filter0_d_101_808" x="0" y="0.163086" width="64" height="64" filterUnits="userSpaceOnUse" color-interpolation-filters="sRGB">
<feFlood flood-opacity="0" result="BackgroundImageFix"/>
<feColorMatrix in="SourceAlpha" type="matrix" values="0 0 0 0 0 0 0 0 0 0 0 0 0 0 0 0 0 0 127 0" result="hardAlpha"/>
<feOffset dy="4"/>
<feGaussianBlur stdDeviation="6"/>
<feComposite in2="hardAlpha" operator="out"/>
<feColorMatrix type="matrix" values="0 0 0 0 0.211765 0 0 0 0 0.196078 0 0 0 0 0.196078 0 0 0 0.12 0"/>
<feBlend mode="normal" in2="BackgroundImageFix" result="effect1_dropShadow_101_808"/>
<feBlend mode="normal" in="SourceGraphic" in2="effect1_dropShadow_101_808" result="shape"/>
</filter>
</defs>
</svg>
