<svg width="32" height="33" viewBox="0 0 32 33" fill="none" xmlns="http://www.w3.org/2000/svg">
<path d="M0 16.1631C0 24.9996 7.16344 32.1631 16 32.1631C24.8366 32.1631 32 24.9996 32 16.1631C32 7.32653 24.8366 0.163086 16 0.163086C7.16344 0.163086 0 7.32653 0 16.1631Z" fill="#FF0000"/>
<path d="M23.6 12.263C23.4 11.563 22.9 11.063 22.2 10.863C21 10.563 15.9 10.563 15.9 10.563C15.9 10.563 10.9 10.563 9.60001 10.863C8.90001 11.063 8.4 11.563 8.2 12.263C8 13.563 8 16.163 8 16.163C8 16.163 8 18.763 8.3 20.063C8.5 20.763 9 21.263 9.7 21.463C10.9 21.763 16 21.763 16 21.763C16 21.763 21 21.763 22.3 21.463C23 21.263 23.5 20.763 23.7 20.063C24 18.763 24 16.163 24 16.163C24 16.163 24 13.563 23.6 12.263ZM14.4 18.563V13.763L18.6 16.163L14.4 18.563Z" fill="white"/>
</svg>
